<?xml version="1.0" standalone="no"?>
<!DOCTYPE svg PUBLIC "-//W3C//DTD SVG 1.1//EN" "http://www.w3.org/Graphics/SVG/1.1/DTD/svg11.dtd" >
<svg xmlns="http://www.w3.org/2000/svg">
<metadata>
Created by FontForge 20120731 at Wed Sep 21 16:15:31 2016
 By admin
</metadata>
<defs>
<font id="ico" horiz-adv-x="1024" >
  <font-face 
    font-family="ico"
    font-weight="500"
    font-stretch="normal"
    units-per-em="1024"
    panose-1="2 0 6 3 0 0 0 0 0 0"
    ascent="896"
    descent="-128"
    x-height="792"
    bbox="0 -212 1263 896"
    underline-thickness="50"
    underline-position="-100"
    unicode-range="U+0078-E684"
  />
<missing-glyph horiz-adv-x="374" 
d="M34 0v682h272v-682h-272zM68 34h204v614h-204v-614z" />
    <glyph glyph-name=".notdef" horiz-adv-x="374" 
d="M34 0v682h272v-682h-272zM68 34h204v614h-204v-614z" />
    <glyph glyph-name=".null" horiz-adv-x="0" 
 />
    <glyph glyph-name="nonmarkingreturn" horiz-adv-x="341" 
 />
    <glyph glyph-name="x" unicode="x" horiz-adv-x="1001" 
d="M281 543q-27 -1 -53 -1h-83q-18 0 -36.5 -6t-32.5 -18.5t-23 -32t-9 -45.5v-76h912v41q0 16 -0.5 30t-0.5 18q0 13 -5 29t-17 29.5t-31.5 22.5t-49.5 9h-133v-97h-438v97zM955 310v-52q0 -23 0.5 -52t0.5 -58t-10.5 -47.5t-26 -30t-33 -16t-31.5 -4.5q-14 -1 -29.5 -0.5
t-29.5 0.5h-32l-45 128h-439l-44 -128h-29h-34q-20 0 -45 1q-25 0 -41 9.5t-25.5 23t-13.5 29.5t-4 30v167h911zM163 247q-12 0 -21 -8.5t-9 -21.5t9 -21.5t21 -8.5q13 0 22 8.5t9 21.5t-9 21.5t-22 8.5zM316 123q-8 -26 -14 -48q-5 -19 -10.5 -37t-7.5 -25t-3 -15t1 -14.5
t9.5 -10.5t21.5 -4h37h67h81h80h64h36q23 0 34 12t2 38q-5 13 -9.5 30.5t-9.5 34.5q-5 19 -11 39h-368zM336 498v228q0 11 2.5 23t10 21.5t20.5 15.5t34 6h188q31 0 51.5 -14.5t20.5 -52.5v-227h-327z" />
    <glyph glyph-name="uniE600" unicode="&#xe600;" 
d="M912 769q22 -51 29 -97q3 -20 3 -40.5t-5 -39.5t-16.5 -35.5t-31.5 -27.5q-2 -2 -4.5 -2.5t-4.5 -2.5q12 -32 18.5 -67t6.5 -72q0 -82 -31 -153.5t-84 -125t-125 -84.5t-153 -31q-82 0 -153.5 31t-125 84.5t-84.5 125t-31 153.5q0 72 25 138l-7 3l-6 3q-21 11 -32 27.5
t-16.5 35.5t-5 39.5t3.5 40.5q7 46 29 97q10 -30 23 -60q11 -25 26 -51t33 -44q54 76 137.5 120t183.5 44q48 0 94 -11.5t86.5 -32.5t75.5 -51t62 -67q18 18 32 44t25 50q13 29 23 59zM281 593q11 -38 25 -69q12 -28 26 -53.5t30 -32.5q15 -8 32 -1.5t32 18.5q16 14 33 34z
M736 272q1 2 1 6.5t-1.5 10t-5.5 10t-11 7.5q-21 -26 -51 -45q-26 -17 -66.5 -31t-93.5 -14q-54 0 -92 14t-64 31q-30 19 -51 45q-7 -2 -10.5 -6.5t-5.5 -10t-2 -10t1 -7.5q1 0 1 -2q8 -25 29 -46t50.5 -36.5t67 -24.5t78.5 -9q82 0 141.5 30t80.5 78q0 2 1 4zM661 438
q16 7 30.5 32.5t25.5 53.5q14 31 25 69l-178 -104q17 -20 34 -34q14 -12 31 -18.5t32 1.5z" />
    <glyph glyph-name="uniE601" unicode="&#xe601;" 
d="M0 812h1024v-1024h-1024v1024zM301 382v143q-81 -14 -135 -77t-54 -146t54 -147q60 29 97 90.5t38 136.5zM338 244q-20 -86 -108 -141q50 -28 108.5 -28t108.5 28q-88 55 -109 141zM511 448q-53 63 -135 77v-142q0 -75 37.5 -136.5t97.5 -91.5q-53 64 -53 147t53 146z
M511 448q55 -65 55 -146.5t-55 -146.5v0q61 30 99 91t38 136v143q-83 -14 -137 -77zM723 383q0 -75 37.5 -136.5t97.5 -91.5q54 64 54 147t-54 146t-135 77v-142zM686 244q-21 -86 -109 -141q50 -28 108.5 -28t108.5 28q-88 55 -108 141z" />
    <glyph glyph-name="uniE602" unicode="&#xe602;" 
d="M544 153l-416 462h768z" />
    <glyph glyph-name="uniE603" unicode="&#xe603;" 
d="M707 39l-48 62q-23 30 -48 66q-8 10 -8 11q-1 -1 -2 -2.5t-1 -2.5q-9 -12 -17 -21.5t-18 -18.5l-15 -13q-5 -5 -18.5 -13t-18 -10.5t-23 -12.5t-25.5 -14q-17 -9 -55.5 -12t-81.5 -4t-89 -7t-89.5 -27t-70.5 -58q39 13 92.5 21.5t120 6t116.5 -19.5q62 -22 121 -19
t100.5 16.5t57.5 29.5l-1 2q1 1 2 -1q9 8 21 22q3 4 3 6q-1 8 -5 13zM173 424q27 -18 43 -18q12 -1 23.5 1t30 7.5t23.5 6.5q46 12 82 12q25 0 31 -2q9 -5 13 -10q1 0 2 -3q0 -3 1 -3q2 0 2 3q-1 17 -15 28q-11 9 -52 31q16 17 43 24q14 4 21 4q1 0 15 0.5t14 -1.5
q1 0 2 1.5t0 2.5q-27 14 -50 20q-14 5 -18 6q31 23 57 73q19 36 40 37q0 3 -4 6h-2q-18 7 -33 7q-33 1 -47 -10q-25 -36 -44 -45q-6 -3 -10 -3q-2 0 -4 -5q2 -3 4 -9q3 -8 3 -13l-17 20q-8 -4 -10 -5.5t-1 -4.5q2 -6 4 -16l-13 17q-7 -2 -13 -7q-3 -3 -1 -6q11 -18 13 -26
q2 -6 0 -8q-5 -4 -6 -8l3 -3q22 -7 33 -21l-17 -6q-6 -3 -8 -7q11 -12 14 -16h-1l-1 -2l-9 -10l-12 -8q-18 -9 -38 -9l-27 3l-15 3q-10 2 -18 3t-16 1q-9 -1 -11 0q13 45 46 75h1q2 3 6.5 5.5t6.5 3.5l1 2q0 1 1 0q1 0 2 1q3 2 11 5.5t11 5.5q12 4 20 10q-1 10 -6 15
q-27 3 -53 -3q-22 -4 -31 -20q-7 -15 -18 -29t-20 -18l19 37q8 17 19 24q6 4 35 14q1 0 1 1.5t-1 2.5q-16 7 -22 5q-9 1 -22 -2q-16 -3 -20 -11q-5 -21 -19.5 -40t-27.5 -22q-1 -6 0 -9q3 -24 20 -48.5t36 -36.5zM503 428q-12 38 -27 56q-1 0 -3 1t-3.5 1.5t-3.5 1.5
q-26 7 -64 2l-17 -7q-6 -2 -7 -5l1 -1l1 -1q26 -14 42 -39q3 -5 8 -15q1 0 2 3q1 1 1 4t0.5 5.5t1.5 4.5q13 -32 9 -67q0 -6 -7 -26q1 9 -1 22q-2 16 -9 25q-1 0 -2 -3l-7 -21q-17 -39 -33 -59l-2 -2v-1q-14 -19 -21 -27q-12 -13 -28 -25q-27 -21 -44 -29q-55 -24 -99 13
q-9 -13 -7 -28q1 -3 11 -14q6 -7 9 -18q1 -4 0.5 -10t0.5 -8q32 -31 59 -14q7 4 38 33q58 53 113 85q2 1 11 6t13 7.5t11 7.5t12.5 10.5t11.5 12.5q8 34 35 93q-1 11 -6 26zM860 421q-36 39 -71 60q-45 26 -116 25q-7 0 -110 -13q-15 -2 -42 -3t-33 -1q-2 0 -2.5 -2t0.5 -2
q4 -4 13 -10q38 -23 59 -29q43 -12 74 -10h1l21 1q9 1 19 2.5t22 3t19 2.5q44 6 73 -2h1q20 -7 35 -17q1 4 1 0q14 -9 56 -44q4 -4 13 -12t13 -11q4 -4 11.5 -10.5t12 -10t10.5 -7.5t13 -7q1 -1 2 1q-1 0 -3 2l-1 1q-12 8 -24.5 20t-20.5 20.5t-23.5 26.5t-22.5 26zM881 136
q61 -3 95 -31q0 2 -2 3l-1 1h-1q-22 22 -61 36q-57 12 -83 24q-39 18 -102 85q-45 54 -97 69l1 1q22 18 24 20v4q-32 4 -82 25q-36 16 -48 24l-1 -1v-1q-2 -5 -10 -20.5t-11 -23.5q-1 -1 -1 -1.5t1 -1.5q28 5 63 -8q22 -9 29 -15q-18 -9 -38 -38q-1 -1 1 -2t3 -1
q60 2 104 -29q15 -10 41.5 -34.5t31.5 -29.5q19 -17 31 -24q27 -18 55 -24q20 -5 32 -6h1q12 -1 16 -2q0 2 0.5 2t0.5 -1h5h3zM144 254q31 36 61 37q5 0 9 -2l14 -5q1 0 2.5 -1.5t2.5 -1.5q24 -13 37 -12q2 0 1 3q8 10 12 14h1q1 1 1 0q-1 -2 -0.5 -7t-0.5 -7q1 -1 3 -1
q5 11 13 19q3 -1 5 -9l2 -3q5 18 21 36q1 -10 1.5 -25.5t0.5 -20.5l2 -3q34 37 39 44l19 27q2 3 8 13t9 16q2 2 1 6l-3 3q-1 1 -3 1q-21 7 -50 -12q-10 -6 -27 -21.5t-20 -18.5q-6 -5 -17 -12l-2 -1l-2 -2q-21 -11 -51 -5q-34 15 -58 10q-21 -4 -57 -31q-1 0 -2.5 -1.5
t-2.5 -1.5q-34 -23 -57 -12v-3l8 -8q14 -10 44 -10l-11 -8q-15 -8 -45 -10q1 -4 3 -5q33 -13 58 1q5 3 10 7.5t11.5 11.5t9.5 11zM750 370q3 0 9.5 1t9.5 0q41 -1 83 -15q24 -8 37 -15q2 -1 27 -16t38 -21q1 1 0 2q-13 7 -22 16q-8 6 -18.5 14t-17.5 15t-19 18.5t-18 17.5
l-17 14q-46 33 -92 35q-16 0 -71 -6q-1 0 -1 -1t-1 1q-2 0 -12.5 -2t-15.5 -3q-63 -7 -124 22l-2 -2l1 -2q6 -5 9 -8q32 -19 38 -21q62 -26 131 -26h1l65 2q4 0 4 -2q-15 -7 -25 -15q0 -1 1 -2t2 -1zM447 671l14 -5q10 11 23 20.5t20 14.5t24.5 15t21.5 12q11 9 23 16.5
t27 13t23 8.5t24 7t18 5q34 10 72.5 10.5t64.5 -4t54 -11t37 -7.5q-36 22 -93.5 36t-124.5 12.5t-113 -24.5q-25 -13 -57 -37q-40 -29 -76 -76q-3 -4 -4 -9q2 1 10 2.5t12 0.5zM862 248q-46 41 -91 55q-32 13 -90 14l-2 -2q7 -4 30 -23q7 -6 19.5 -20t17.5 -19
q30 -34 63 -55q36 -23 55 -27q2 -1 21 -5q43 -9 49 -11q-2 5 -3 5l-21 8q-25 8 -61 30q-43 26 -78 70q19 -7 30 -14q21 -14 77 -44q32 -18 48 -21q22 -5 27 -4q-2 3 -3 3l-1 -1l-36 22q-20 12 -51 39zM647 737q-75 -7 -135 -42q-31 -17 -45 -32q0 -1 1 -1l1 -3
q31 -11 59 -12q3 0 2 3q1 1 2.5 3t2.5 3q9 7 43 27q7 4 16.5 7.5t15.5 5.5t18 4t15.5 2.5t18 1.5t15.5 1q88 7 221 -67q-33 42 -100.5 74.5t-150.5 24.5zM684 327h20q14 0 21.5 -0.5t19 -2.5t20.5 -5q53 -18 98 -47v-1q3 -2 9.5 -6t9.5 -7q4 -3 9 -5q1 0 3 -1l2 -3
q21 -17 39 -24l2 1l-2 1q-25 18 -62 60q-33 36 -54 51q-10 7 -19 12q-37 17 -76 11l6 7l7 6q1 1 1 3t-1 2q-2 0 -2 -1l-25 -2q-36 -1 -88 10q-56 12 -93 30v-4v-2q26 -20 62 -33q39 -14 90 -24l-20 -24q-1 0 0 -1.5t1 -2.5q2 0 9.5 1t12.5 1zM871 23q-3 2 -4 2q-15 6 -49 5
q-15 0 -40 8q-45 16 -83 71q-7 10 -18.5 30.5t-17.5 29.5q-29 46 -55 66q-14 10 -41 26t-31 19q-1 1 -6 4t-7 4t-6.5 4.5t-7 6t-6 7t-5.5 8.5q-2 2 -5 1l-1 -1q0 -2 1 -2q3 -4 4 -9q6 -13 17 -24q9 -10 19.5 -18t23 -17t19.5 -15q27 -21 56 -64q48 -69 57 -80q37 -47 76 -63
q25 -11 64 -3q29 6 44 0q3 -1 4 1q0 2 -2 3zM545 597l-2 -3l2 -1q3 -3 3 -4q8 -15 9 -27l-2 -8q-6 -1 -22 -5.5t-25 -7.5v-1q0 -2 -1 -2q1 -1 6 -4t8 -7q2 -2 1 -2q-4 -3 -13 -9t-13 -8q-1 0 -0.5 -1.5t1.5 -2.5q5 -2 16 -1q20 1 57.5 9t54.5 9q27 3 56 0q7 -1 20.5 -4.5
t20.5 -3.5q1 2 -2 3q-30 11 -42 18l-68 43q-41 22 -65 20zM830 539q-47 34 -57 40q-24 15 -87 37q-32 11 -84 7q-1 -1 -1.5 -1t-0.5 1q-2 -1 -7 -1.5t-7 -1.5q-19 -5 -27 -12q-3 -2 0 -3q46 -13 73 -27q6 -3 33 -21q27 12 60 12q36 0 105 -30zM739 114q16 -11 30 -19
q5 -2 15.5 -6t16.5 -5q4 0 17.5 -0.5t22.5 -1.5t18 -4l3 -1q1 1 0 3v1q-13 6 -23 8q-55 9 -98 53q-9 10 -19 22.5t-24 30.5l-19 26l-7 7l-7 7q-37 35 -79 36l-2 -3q15 -6 45 -36q9 -9 20 -27l20 -35q16 -30 38 -52q1 2 3 3l-8 22l-2 6q24 -25 39 -35zM202 487
q-9 -12 -10 -16q0 -1 0.5 -2t1.5 -1q10 2 12 1q4 -1 20.5 -7.5t25.5 -7.5q30 -1 61 17q3 2 1 5q-4 3 -10.5 11t-7.5 9l12 9q2 2 4 6v1l-2 2h-1q-20 6 -37 2q14 20 15 22l-1 4q-51 -10 -84 -55zM225 487q14 15 29 17q2 0 2 -1q3 -3 6 -13q-1 -6 -4.5 -10t-6.5 -3q-4 0 -24 11
q-1 0 -2 -1zM531 635q-2 3 -4 3h-3h-3q-51 0 -87 -52q-3 -5 -9 -14.5t-11 -17t-10 -12.5q0 -4 1 -4q2 1 7.5 1t8 0.5t7 2t8.5 4.5q49 41 102 32q1 0 2 1.5t2 3.5q-5 2 -13.5 5.5t-11.5 5.5q18 10 32 11q1 1 1 2.5t-1 1.5q-18 3 -29 2q0 3 4 13q0 3 3 6.5t4 4.5zM707 547
q-11 0 -16 -4q55 -25 71 -33h21q46 -5 95 -35q4 -2 11 -7t10 -6v2q-19 16 -76 54q-53 35 -116 29zM123 40q1 0 11 4t24.5 10.5t22.5 9.5q9 4 12 3q2 0 3 3q1 7 3 20q-8 0 -18 -5q-12 -5 -26.5 -16.5t-22.5 -20.5zM445 524q16 -16 41 -17q1 0 2.5 1t0.5 3l-7 11q12 0 20 2
q4 1 1 3q-7 7 -18 12q2 1 6.5 3.5t8 4t7.5 2.5q15 5 23 9q1 3 -2 4q-15 2 -24 1q-37 -2 -60 -27q-3 -2 -1 -8q0 -2 2 -4zM210 91q-1 -3 -3 -12t-2 -11q26 5 33 5q13 1 16 2q5 17 7 24q0 1 -11 -0.5t-26 -4.5zM549 291q2 3 5.5 9t5.5 8q1 2 4.5 6.5t5.5 7.5q1 2 -1 3
q-46 18 -83 9q-1 0 -1.5 -1.5t0.5 -2.5q2 -1 6.5 -3t6.5 -2q10 -5 51 -34zM378 80l1 2q3 -1 9 1q27 9 36 17v6q0 11 -1 15l-34 -13q-10 -2 -11 -2v-12v-14zM367 105q-8 0 -33 1q-4 0 -5 -3q-3 -10 -3 -14q-3 -6 -1 -10h5q30 1 36 2q3 15 4 23v1q-1 1 -2 1zM312 103
q-27 -1 -40 -3q-2 -1 -2 -4q-2 -12 -5 -20q6 -1 17.5 0t15.5 1q8 0 9 1q1 2 2.5 7t1.5 6l-1 1l1 2h1q1 7 0 9zM468 150q-13 -12 -35 -24q-2 -1 -2 -3q2 -12 5 -18q25 11 38 27q1 1 1 2q-1 3 -2.5 8.5t-2.5 7.5h-2zM553 219q-2 1 -4 3.5t-4 5.5t-3 4q-1 2 -3 -1
q-3 -6 -10.5 -17.5t-10.5 -17.5q-1 -2 -1 -5q2 -5 8 -11q1 -1 2 -1t1 1q16 19 25 35v2v2zM507 184q-5 -6 -14.5 -15t-12.5 -12q0 -9 4 -17q1 -2 3 -1q16 13 22 20q9 11 11 14q-4 3 -9 13q-1 2 -4 -2zM128 464q-1 0 -2 -1q4 -45 17 -75q2 4 2 5q-3 23 1 44q-13 17 -18 27z
M278 275q-15 -21 -21 -50q6 -8 16 0q3 2 4 8q0 26 3 41q-2 0 -2 1zM300 238q3 3 3 5l-1 35q0 1 -2 2l-1 -1q-12 -21 -16 -46q0 -1 4 -2q6 -1 13 7zM208 392q-5 1 -11 5q-3 2 -3 1q-2 -2 -1 -5q7 -33 18 -52l2 4q-4 18 -3 43q0 4 -2 4zM222 394l-2 -2q1 -7 6 -19v-1
q8 -19 15 -26l2 2l-3 10q-1 7 -1.5 19.5t-0.5 17.5q-2 0 -8 -0.5t-8 -0.5zM239 220h3h3q6 0 6 7q1 4 1.5 16t1.5 18.5t0 7.5h-1l-1 -2q-11 -16 -19 -42q2 -3 6 -5zM233 273q-10 -15 -15 -27q-4 -12 -4 -16q0 -3 3 -4q5 -2 8 -2q4 1 5 6q1 15 2 21q3 18 3 21zM325.5 301
q-1.5 0 -1.5 -1q-11 -25 -14 -50q6 -7 11 2q5 7 5 9q1 3 0.5 16.5t0.5 17.5q0 6 -1.5 6zM309 408q-1 2 -7 1l-5 -1q-5 0 -4 -3q3 -26 12 -47q1 0 2 1l-1 12l3 35q1 1 0 2zM153 431q-1 1 -2 -0.5t0 -2.5q2 -36 9 -59q0 -1 1 -0.5t1 1.5q1 2 1 5v7v6q0 5 1 15t1 12zM180 406.5
q-3 0.5 -5 3.5q-2 4 -5 1q2 -28 12 -57q2 -1 3 0q-1 9 -2 49q0 3 -3 3.5zM261 401q-8 -1 -11 -2t-3 -3q7 -29 14 -41q2 1 3 2q-3 18 -1 43q0 1 -2 1zM215 279q-15 -16 -19 -36q7 -12 14 -7q1 15 7 39q0 1 -2 4zM334 416h-7h-5q-1 -1 -4 -3q1 -8 9 -38q1 -3 4 -3q1 22 5 40
q1 3 0 4h-2zM275 404q-4 -1 -4 -2v-5q5 -24 14 -37l2 2q-3 22 -1 44q-7 0 -11 -2zM346 385q1 0 2 1l1 2q11 13 10 33q-4 1 -12 -1q-3 0 -2 -4q2 -18 0 -28q0 -1 1 -3z" />
    <glyph glyph-name="uniE604" unicode="&#xe604;" 
d="M49 383q0 95 36.5 180.5t98.5 147.5t148 99t180 37t180 -37t148 -99t98.5 -147.5t36.5 -180t-36.5 -180t-98.5 -147.5t-148 -99t-180 -37t-180 37t-148 99t-98.5 147.5t-36.5 179.5zM909 383q0 108 -53 199.5t-144.5 145t-199.5 53.5t-199.5 -53.5t-144.5 -145t-53 -199
t53 -199t144.5 -145t199.5 -53.5t199.5 53.5t144.5 145t53 198.5zM567 195l166 164q16 15 8 36q-1 0 -1.5 0.5t-0.5 1.5q-3 6 -6 8v1l-164 164q-10 10 -23.5 10t-23.5 -9.5t-10 -23.5t10 -23l107 -107h-316q-13 0 -23 -10t-10 -23.5t10 -23.5t23 -10h318l-110 -108
q-10 -10 -10 -24q0 -13 9.5 -23t23.5 -10t23 10zM567 195z" />
    <glyph glyph-name="uniE605" unicode="&#xe605;" 
d="M762 320l-371 -371q-22 -23 -54 -23t-54 23q-23 22 -23 54t23 54l316 317l-316 317q-23 23 -23 54.5t23 54.5q22 22 54 22t54 -22l371 -372q23 -22 23 -54t-23 -54z" />
    <glyph glyph-name="uniE606" unicode="&#xe606;" horiz-adv-x="1343" 
d="M351.5 510q-24.5 0 -41.5 -17.5t-17 -41.5t17 -41t41.5 -17t41.5 17t17 41t-17 41.5t-41.5 17.5zM351.5 426q-10.5 0 -18 7.5t-7.5 18t7.5 18t18 7.5t18 -7.5t7.5 -18t-7.5 -18t-18 -7.5zM1084 442q-3 1 -5 1q-13 0 -16 -12q-2 -7 1 -13t9 -8q81 -26 119 -66t38 -100
q0 -82 -105 -154q-7 -5 -7 -14v-103q-48 19 -83 59q-6 7 -16 5q-7 -2 -24 -6q-29 -8 -42 -8q-54 0 -94 12.5t-78 40.5q-6 4 -12.5 3t-11 -6.5t-3 -12.5t6.5 -11q43 -31 87.5 -45t104.5 -14q18 0 51 9q8 2 13 3q23 -24 53 -41.5t43 -21.5t18 -5h3q6 0 11 4q6 5 6 13v117
q112 80 112 176q0 72 -44 120.5t-135 77.5zM547.5 512q-24.5 0 -41.5 -17t-17 -41t17 -41.5t41.5 -17.5t41.5 17.5t17 41.5t-17 41t-41.5 17zM547.5 429q-10.5 0 -18 7t-7.5 17.5t7.5 18t18 7.5t18 -7.5t7.5 -18t-7.5 -17.5t-18 -7zM1011 454q0 107 -59.5 194t-165 136.5
t-234.5 49.5t-237 -50t-170 -137.5t-62 -192.5q0 -155 168 -274v-185q0 -9 8 -14q4 -2 9 -2q3 0 7 1q12 6 31 16t66 44t84 74q68 -12 110 -12q200 0 322.5 97t122.5 255zM566 135q-41 0 -113 14q-10 1 -16 -6q-63 -71 -153 -120v165q0 9 -7 14q-160 111 -160 252
q0 96 57.5 175.5t157.5 125.5t220 46t217.5 -45.5t153 -125t55.5 -176.5q0 -143 -113.5 -231t-298.5 -88zM743 512q-24 0 -41.5 -17t-17.5 -41t17.5 -41.5t41.5 -17.5t41.5 17.5t17.5 41.5t-17.5 41t-41.5 17zM743 429q-10 0 -17.5 7t-7.5 17.5t7.5 18t17.5 7.5t17.5 -7.5
t7.5 -18t-7.5 -17.5t-17.5 -7z" />
    <glyph glyph-name="uniE607" unicode="&#xe607;" horiz-adv-x="1050" 
d="M470.5 834q-13.5 0 -23 -11t-9.5 -27v-752l-331 331l-45 -46l386 -386l1 1q9 -10 21 -10q14 0 23.5 11t9.5 27v824q0 16 -9.5 27t-23 11zM663.5 352q13.5 0 22.5 11t9 26v335l171 -170l45 46l-225 225l-1 -1q-9 10 -22 10t-22.5 -11t-9.5 -26v-408q0 -15 9.5 -26t23 -11z
M663 223h290q13 0 22.5 9.5t9.5 23t-9.5 23t-22.5 9.5h-290q-13 0 -22.5 -9.5t-9.5 -23t9.5 -23t22.5 -9.5zM953 159h-290q-13 0 -22.5 -9.5t-9.5 -22.5t9.5 -22.5t22.5 -9.5h290q13 0 22.5 9.5t9.5 22.5t-9.5 22.5t-22.5 9.5zM953 30h-290q-13 0 -22.5 -9t-9.5 -22.5
t9.5 -23t22.5 -9.5h290q13 0 22.5 9.5t9.5 23t-9.5 22.5t-22.5 9z" />
    <glyph glyph-name="uniE608" unicode="&#xe608;" horiz-adv-x="1088" 
d="M737.5 725q14.5 0 25 -10.5t10.5 -25.5t-10.5 -25.5t-25 -10.5t-25 10.5t-10.5 25.5t10.5 25.5t25 10.5zM239.5 411q40.5 0 73 -23.5t44.5 -61.5h66q11 38 44 61.5t73.5 23.5t73 -23.5t43.5 -61.5h66q12 38 44.5 61.5t73 23.5t73 -23.5t44.5 -61.5h60q-11 101 -63 189.5
t-135 148.5l-32 -44q97 -70 144 -180q-43 25 -91 25q-46 0 -86.5 -22t-64.5 -59q-24 37 -64 59t-86 22t-86 -22t-64 -59q-24 37 -64 59t-86 22q-49 0 -92 -25q48 113 150.5 184t227.5 75l26 1v134h-54v-82q-170 -15 -293.5 -135.5t-142.5 -290.5h60q12 38 44.5 61.5t73 23.5
zM593 -66q-31 0 -56 15q-24 14 -33 41t-7 51v321h54v-323q-2 -34 14 -43q22 -13 44 -5q19 7 27 34l51 -17q-15 -51 -58 -67q-17 -7 -36 -7z" />
    <glyph glyph-name="uniE609" unicode="&#xe609;" 
d="M547 444q-15 15 -36.5 15t-36.5 -15l-369 -359q-15 -15 -15 -36t15.5 -35.5t36.5 -14.5t37 14l332 324l332 -324q15 -14 36.5 -14t36.5 14.5t15 35.5t-15 36zM179 325l332 324l332 -324q15 -15 36.5 -15t36.5 15t15 36t-15 35l-369 360q-15 14 -36.5 14t-36.5 -14
l-369 -360q-15 -14 -15 -35t15.5 -36t36.5 -15t37 15z" />
    <glyph glyph-name="uniE60A" unicode="&#xe60a;" 
d="M533 626l117 -36l35 -115q3 -11 15 -14q8 -3 15.5 1t10.5 12l36 117l115 35q11 4 15 15q2 8 -2 16t-12 10l-116 35l-36 116q-2 11 -14 15q-8 3 -16 -1.5t-10 -12.5l-36 -117l-116 -35q-11 -3 -15 -14q-2 -8 2 -16t12 -11zM673 665q10 4 14 14l19 63l19 -63q3 -11 13 -13
v-1l62 -18l-62 -19q-10 -4 -13 -15l-19 -61l-19 62q-4 11 -14 14l-62 19zM925 128l-67 20l-20 67q-4 11 -14 14q-9 3 -16.5 -1t-10.5 -13l-21 -67l-65 -20q-12 -3 -15 -14q-3 -8 1 -16t13 -11l67 -20l20 -66q3 -12 14 -15q8 -2 16 2t11 12l20 67l66 20q12 4 15 15
q2 8 -2 15.5t-12 10.5zM835 104q-11 -3 -14 -14l-4 -12l-4 12q-2 11 -13 14l-12 4l12 3q10 4 13 14l4 12l4 -12q3 -10 14 -14l12 -3zM102 593l67 -21l20 -66q4 -11 14 -15q9 -2 16.5 2t9.5 13l21 66l66 21q12 3 15 14q2 8 -2 15.5t-12 10.5l-67 21l-21 66q-3 12 -14 14
q-8 3 -15.5 -1t-10.5 -13l-20 -66l-66 -20q-12 -4 -15 -15q-3 -8 1.5 -16t12.5 -10zM192 617q10 3 14 14l3 12l4 -12q3 -11 14 -14l12 -4l-12 -4q-10 -3 -14 -14l-4 -12l-3 12q-4 11 -14 14l-12 4zM812 336h-1q16 11 15 29q0 14 -10.5 24.5t-24.5 9.5h-232l-71 221
q-6 17 -22 23q-14 4 -27 -2.5t-18 -20.5l-71 -221l-232 1q-17 0 -28 -15q-9 -12 -6.5 -26t13.5 -23l188 -136l-71 -218q-7 -17 4 -34q8 -11 22.5 -13.5t26.5 6.5l188 137l187 -137q14 -11 31 -5q14 4 21 17t2 27l-72 220zM475 149q-22 16 -42 -1l-120 -86l47 141
q8 24 -13 39l-121 87h149q12 0 21.5 7.5t12.5 19.5l46 139l45 -141q4 -12 14 -18.5t22 -6.5l147 1l-121 -88q-9 -7 -12.5 -18t-0.5 -21l46 -141z" />
    <glyph glyph-name="uniE60B" unicode="&#xe60b;" 
d="M106.5 420q17.5 0 30 -12.5t12.5 -30t-12.5 -30t-30 -12.5t-29.5 12.5t-12 30t12 30t29.5 12.5zM274.5 420q17.5 0 30 -12.5t12.5 -30t-12.5 -30t-30 -12.5t-30 12.5t-12.5 30t12.5 30t30 12.5zM441.5 420q17.5 0 30 -12.5t12.5 -30t-12.5 -30t-30 -12.5t-30 12.5
t-12.5 30t12.5 30t30 12.5zM608.5 420q17.5 0 30 -12.5t12.5 -30t-12.5 -30t-30 -12.5t-29.5 12.5t-12 30t12 30t29.5 12.5zM952 407l-264 264q-9 9 -24 6.5t-27.5 -15t-14.5 -27.5t7 -24l226 -227l-226 -227q-9 -9 -7 -24t14.5 -27.5t27.5 -15t24 6.5l264 264q9 9 7 23
q2 14 -7 23z" />
    <glyph glyph-name="uniE60C" unicode="&#xe60c;" 
d="M954 176q0 38 -22 70t-58 48q-11 60 -59 101q-55 48 -129 48q-68 0 -120.5 -40.5t-66.5 -103.5q-41 -13 -66.5 -47t-25.5 -76q0 -53 40 -91t96 -38q11 0 18.5 7.5t7.5 18.5t-7.5 18.5t-18.5 7.5q-34 0 -59 22.5t-25 54.5q0 28 19.5 49.5t48.5 26.5l19 4l2 19
q6 50 45.5 83t92.5 33q54 0 94 -34.5t44 -84.5l2 -18l17 -4q26 -8 42.5 -28.5t16.5 -45.5q0 -32 -24.5 -55t-59.5 -23q-11 0 -18.5 -7.5t-7.5 -18.5t7.5 -18.5t18.5 -7.5h2h2q55 2 93.5 39.5t38.5 90.5zM342 123v0l-11 4q-28 9 -45 17q-16 8 -64 41q-1 1 -2 1q-11 9 -20 19
q-53 53 -77 123q86 -46 183 -32.5t166 83.5t83 167t-32 182q70 -23 123 -76q26 -26 45 -58l4 -6q13 -26 20 -44q6 -14 18 -56q5 -19 25 -19q3 0 7 1q10 3 15.5 12.5t2.5 19.5v1q-13 62 -46 117l-1 3q-2 2 -4 5q-21 33 -49 61q-64 64 -150 91q-34 10 -54 -11q-23 -22 -8 -55
l1 -2v-1q43 -71 32.5 -153.5t-69 -141.5t-141 -69.5t-153.5 32.5h-2q-36 19 -56 -2q-20 -20 -11 -57v-2q27 -86 91 -150q70 -71 166 -96h4q19 0 25 17q3 10 -1.5 20t-14.5 14zM679 121q-21 0 -35.5 -14.5t-14.5 -35.5t14.5 -35.5t35.5 -14.5t35.5 14.5t14.5 35.5t-14.5 35.5
t-35.5 14.5z" />
    <glyph glyph-name="uniE60D" unicode="&#xe60d;" 
d="M766 638q-107 -65 -191.5 -142.5t-139.5 -143.5l-129 101l-57 -46l223 -226q33 83 119 207t189 219zM648 -27h-272q-118 0 -201 83t-83 201v272q0 117 83 200.5t201 83.5h272q117 0 200.5 -83.5t83.5 -200.5v-272q0 -118 -83.5 -201t-200.5 -83zM376 793
q-109 0 -186.5 -77.5t-77.5 -186.5v-272q0 -109 77.5 -186.5t186.5 -77.5h272q109 0 186.5 77.5t77.5 186.5v272q0 109 -77.5 186.5t-186.5 77.5h-272z" />
    <glyph glyph-name="uniE60E" unicode="&#xe60e;" 
d="M939 830q-97 -68 -188.5 -149.5t-163 -159.5t-120.5 -137t-88 -114l-218 197l-97 -89l377 -444q34 102 106 241t184.5 303.5t230.5 290.5z" />
    <glyph glyph-name="uniE60F" unicode="&#xe60f;" 
d="M559.5 326q-1.5 2 -4 2t-4.5 -2v0q-2 2 -4 2q-3 0 -5 -2t-2 -4.5t2 -4.5l7 -7q1 -1 2 -1t1 1l8 7q1 2 1 4.5t-1.5 4.5zM883 702q-78 78 -189 78q-103 0 -182 -79q-1 0 -2 2q-78 77 -179 77q-111 0 -189 -78t-78 -189q0 -110 78 -188l310 -313q25 -25 60.5 -25t60.5 25
l310 313q78 78 78 188.5t-78 188.5z" />
    <glyph glyph-name="uniE610" unicode="&#xe610;" 
d="M861 116q10 5 34.5 24t40.5 24q-34 -51 -61 -83t-66 -65t-87 -50.5t-108 -21.5q-94 -7 -181 22.5t-158 79.5q-53 37 -59 43q-2 2 -2.5 10.5t-2.5 10.5q-5 5 -24 23t-33.5 34t-23.5 29q-5 8 -11.5 27.5t-9.5 26.5q-19 39 -30.5 90.5t-13 111t16.5 110.5q3 9 9.5 20
t11.5 18.5t14.5 19.5t12.5 17q5 6 16 20.5t18.5 25.5t14.5 24q-2 -19 -13.5 -73.5t-8.5 -98.5q10 -130 85 -234.5t184 -168.5q1 -1 8 0t8 0q13 -15 64 -32q75 -28 181.5 -24.5t173.5 40.5zM936 395q-75 -168 -268 -156q-61 4 -120.5 31.5t-105 71.5t-77 100.5t-35.5 118
t21 124.5q3 9 9.5 17.5t15 19.5t12.5 17q1 1 8.5 12t10.5 15t10 10.5t14 10.5q-31 -69 -23.5 -135.5t43.5 -125t86 -102.5t104 -67q62 -26 159 -14t136 52zM608 771q1 -45 22 -86.5t56 -70.5t77.5 -46t91.5 -15t92 25q-21 -54 -77.5 -76.5t-121.5 -10t-113 54.5
q-62 53 -70 136t49 148q6 -14 5 -20.5t-6 -18.5t-5 -20z" />
    <glyph glyph-name="uniE611" unicode="&#xe611;" 
d="M512 758q102 0 188 -50t136.5 -136.5t50.5 -188t-50.5 -188t-136.5 -136.5t-188 -50t-188 50t-136.5 136.5t-50.5 188t50.5 188t136.5 136.5t188 50zM512 805q-114 0 -211.5 -56.5t-154 -153.5t-56.5 -211.5t56.5 -211.5t154 -153.5t211.5 -56.5t211.5 56.5t154 153.5
t56.5 211.5t-56.5 211.5t-154 153.5t-211.5 56.5zM658 145q-17 -7 -40 -12.5t-61 -5.5q-62 0 -100 34.5t-38 97.5v208h-118v55h118v135h69v-135h142v-55h-142v-212q0 -27 14 -46t52 -19t62 6.5t42 17.5v-69z" />
    <glyph glyph-name="uniE612" unicode="&#xe612;" 
d="M327.5 350q-14.5 0 -25 -12.5t-10.5 -30.5t10.5 -30.5t25 -12.5t24.5 12.5t10 30.5t-10 30.5t-24.5 12.5zM697.5 350q-14.5 0 -24.5 -12.5t-10 -30.5t10 -30.5t24.5 -12.5t25 12.5t10.5 30.5t-10.5 30.5t-25 12.5zM511 756h1h1h-2zM885 565q-5 8 -19 27q26 7 41.5 27.5
t13 49.5t-27 55t-56 28t-53 -15.5t-21.5 -42.5h1q-32 16 -57 26.5t-80.5 23t-114.5 12.5t-114.5 -12.5t-80.5 -23t-57 -26.5h1q0 25 -21.5 42.5t-53 15.5t-56 -28t-27 -55t13 -49.5t41.5 -27.5q-14 -19 -19 -27q-72 -121 -75.5 -231.5t66 -192.5t202.5 -114l2 -1
q69 -14 178 -14t178 14l2 1q133 32 202.5 114t66 192.5t-75.5 231.5zM220 318q5 28 18.5 49t31 30.5t37 12t37.5 -5.5t32 -22t20.5 -37.5t2.5 -51.5q-5 -36 -27.5 -58t-49.5 -24.5t-53 6.5t-40.5 36.5t-8.5 64.5zM509 60q-53 0 -91.5 27.5t-38.5 66.5q0 45 41 72.5t89 27.5
t89 -28t41 -72q0 -43 -37.5 -68.5t-92.5 -25.5zM625 293q-4 28 2.5 51.5t20.5 37.5t32 22t38 5.5t37 -12t30.5 -30.5t18.5 -49q6 -37 -8.5 -64.5t-40.5 -36.5t-53 -6.5t-49.5 24.5t-27.5 58zM498 216q-7 -7 -3 -13.5t12 -10.5l8 -5q8 3 15.5 9.5t8.5 10.5q1 9 -14.5 13
t-26.5 -4z" />
    <glyph glyph-name="uniE613" unicode="&#xe613;" 
d="M279 -64l465 448l-465 447v-895zM279 -64z" />
    <glyph glyph-name="uniE614" unicode="&#xe614;" 
d="M512 774q104 0 192.5 -51.5t140 -140t51.5 -192t-51.5 -192t-140 -140.5t-192.5 -52t-192.5 52t-140 140.5t-51.5 192t51.5 192t140 140t192.5 51.5zM512 838q-92 0 -175 -36t-143 -96.5t-95 -143t-35 -172.5q0 -92 35 -175t95 -142.5t143 -95t175 -35.5q90 0 172.5 35.5
t143 95t96.5 143t36 175t-36 175t-96.5 143t-143 94.5t-172.5 35zM512 518q53 0 90.5 -37.5t37.5 -90t-37.5 -90.5t-90.5 -38t-90.5 38t-37.5 90q0 54 36 91t92 37zM512 544q-13 0 -22.5 10.5t-9.5 21.5v128q0 14 9 23t23 9t23 -9t9 -23v-128q0 -11 -9.5 -21.5t-22.5 -10.5z
M512 45q-14 0 -23 8.5t-9 23.5v128q0 14 9 23t23 9t23 -9t9 -23v-128q0 -15 -9 -23.5t-23 -8.5zM358 390q0 -14 -8.5 -23t-23.5 -9h-128q-14 0 -23 9t-9 23q0 15 9 23.5t23 8.5h128q11 0 21.5 -9t10.5 -23zM858 390q0 -14 -9 -23t-23 -9h-128q-15 0 -23.5 9t-8.5 23
q0 15 8.5 23.5t23.5 8.5h128q14 0 23 -8.5t9 -23.5zM403 499q-9 -9 -22 -9t-23 9l-96 90q-9 9 -9 22t9 23q10 9 23 9t22 -9l90 -90q14 -9 15 -22.5t-9 -22.5zM755 147q-9 -9 -22 -9t-23 9l-89 90q-10 9 -10 22t10 23q9 9 22 9t23 -9l89 -90q10 -10 10 -22.5t-10 -22.5z
M403 282q10 -10 10 -23t-10 -22l-89 -90q-10 -9 -23 -9t-22 9q-10 10 -10 22.5t10 22.5l89 90q10 9 23 9t22 -9zM755 634q10 -10 10 -23t-10 -22l-89 -90q-10 -9 -23 -9t-22 9q-10 10 -10 22.5t10 22.5l89 90q10 9 23 9t22 -9z" />
    <glyph glyph-name="uniE615" unicode="&#xe615;" 
d="M550 383q62 62 119.5 97t97.5 35q19 0 34 -3.5t32.5 -13.5t30.5 -32.5t19 -56.5h-220v-53h280l-2 29q-6 54 -23.5 92t-43 57t-51.5 27t-56 8q-107 0 -255 -149q-63 63 -98 120t-35 98q0 18 3.5 33.5t14 33t33 30t55.5 19.5v-213h54v273l-30 -3q-54 -5 -92 -22.5
t-57 -43.5t-26.5 -51.5t-7.5 -55.5q0 -108 148 -256q-132 -132 -217 -132q-19 0 -34 3.5t-32.5 13.5t-30.5 32.5t-19 56.5h201v53h-261l2 -29q6 -54 23 -92t43 -57t52 -27t56 -8q108 0 255 149q63 -63 98 -120t35 -98q0 -19 -4 -34t-14 -32.5t-32.5 -30t-55.5 -19.5v213h-54
v-273l29 3q55 5 93 22.5t56.5 43.5t26.5 51.5t8 55.5q0 108 -148 256z" />
    <glyph glyph-name="uniE616" unicode="&#xe616;" horiz-adv-x="1029" 
d="M697 499l17 53h93l-145 -425q-6 -28 -6 -29q2 -2 2 -8q3 -30 35 -34q34 2 75 32q43 31 63 70q69 128 69 219q0 69 -30 130t-82 107q-53 45 -117 71q-65 26 -133 27q-86 0 -161 -33q-74 -34 -129.5 -94t-86.5 -138q-31 -77 -33 -164q2 0 2 -1h1q1 -112 54 -208
q52 -97 142.5 -154.5t199.5 -57.5q114 2 199 45q86 42 147 133h81q-47 -82 -110 -137q-63 -54 -142 -80q-80 -26 -175 -26q-130 2 -240 70q-109 68 -172 181t-63 244q0 96 37 184.5t103 157.5q66 68 155 106q88 39 189 39q84 -3 164 -34t143 -86q62 -54 98 -128t36 -161
q0 -36 -6.5 -68t-16.5 -58t-26 -56q-13 -23 -27 -49q-19 -37 -56 -72q-38 -34 -83.5 -57t-87.5 -24q-73 7 -109 70q-63 -59 -148 -63q-48 4 -85 19q-98 40 -102 175q4 99 47 187q24 55 67 103.5t95 78.5q53 29 104 29q30 0 59 -11q28 -11 53 -31q25 -19 42 -44zM598 493
q-22 15 -53 15q-37 0 -75 -28q-36 -28 -65 -68q-28 -39 -41 -70q-31 -73 -35 -143q5 -90 68 -116q9 -3 37 -9q96 3 170 171q40 99 40 151q0 63 -46 97z" />
    <glyph glyph-name="uniE617" unicode="&#xe617;" 
d="M663 534q-66 117 -149 238q-6 8 -16.5 8t-16.5 -9q-84 -127 -143 -236q-143 -268 -144 -410q0 -159 108 -242q84 -66 195 -66q49 0 103 16.5t99 50.5q53 39 84 99.5t31 141.5q-1 141 -151 409zM520 299v-414h-32v414q-32 6 -53.5 31.5t-21.5 59t21.5 59t53.5 30.5v131h32
v-131q32 -5 53.5 -30.5t21.5 -59t-21.5 -59t-53.5 -31.5zM504 389zM437 389.5q0 27.5 19.5 47t47.5 19.5t47.5 -19.5t19.5 -47t-19.5 -47.5t-47.5 -20t-47.5 20t-19.5 47.5z" />
    <glyph glyph-name="uniE618" unicode="&#xe618;" 
d="M510 732q-108 0 -199 -53.5t-144 -144.5t-53 -198.5t53 -199t144.5 -144.5t199 -53t198.5 53t144.5 144.5t53.5 199t-53 198.5t-144.5 144.5t-199.5 53.5zM650 314l-197 -198q-9 -9 -21.5 -9t-21.5 9t-9 21.5t9 21.5l176 176l-175 174q-9 9 -9 21.5t9 20.5q9 9 21.5 9
t20.5 -9l197 -195q9 -9 9 -22q0 -12 -9 -20z" />
    <glyph glyph-name="uniE619" unicode="&#xe619;" 
d="M63 836h390v-391h-390v391zM567 836h390v-391h-390v391zM63 332h390v-391h-390v391zM567 332h390v-391h-390v391z" />
    <glyph glyph-name="uniE61A" unicode="&#xe61a;" horiz-adv-x="1025" 
d="M417 242q-19 -20 -6 -45l164 -305q11 -20 34.5 -20t33.5 21l381 954zM21 514q-20 -10 -20.5 -33t19.5 -34l305 -164q24 -13 45 6l606 606z" />
    <glyph glyph-name="uniE61B" unicode="&#xe61b;" horiz-adv-x="1265" 
d="M1084 782h-903q-50 0 -85.5 -35.5t-35.5 -85.5v-722q0 -50 35.5 -85.5t85.5 -35.5h753q6 0 11 2q12 5 16.5 16.5t-0.5 23.5q-2 5 -6 10l-269 268l150 150l318 -311q0 -1 2 -2h2q4 -4 5 -4q6 -2 12 -2t11.5 2t9.5 7q1 0 1.5 1t0.5 2q3 4 4 6.5t2 7.5q0 1 0.5 2t0.5 2v662
q0 50 -35.5 85.5t-85.5 35.5zM120 -61v287l210 183l531 -531h-680q-25 0 -43 18t-18 43zM814 351l-170 -170l-291 291q-9 8 -21 8.5t-21 -7.5l-191 -167v355q0 25 18 43t43 18h903q25 0 42.5 -18t17.5 -43v-591l-287 282q-9 8 -21.5 8t-21.5 -9z" />
    <glyph glyph-name="uniE61C" unicode="&#xe61c;" horiz-adv-x="1026" 
d="M923 811h-820q-43 0 -73 -30t-30 -73v-818q0 -42 30 -72t73 -30h820q42 0 72 30t30 72v818q0 43 -30 73t-72 30zM612 247v-203h-204v203h-204l306 407l306 -407h-204z" />
    <glyph glyph-name="uniE61D" unicode="&#xe61d;" horiz-adv-x="1025" 
d="M728 394q-16 3 -20.5 9t-1.5 11l4 5l3 6q2 4 6 16t4.5 23.5t-4.5 26t-16 26.5q-14 14 -37.5 18.5t-46 1t-43.5 -9.5t-34 -11l-13 -6q-10 -3 -17 -4.5t-10.5 0.5t-5.5 3.5t-2 7t1 9.5t3 13t3 14q0 15 -2.5 28t-11 27.5t-23 22t-41.5 7t-62 -12.5q-36 -12 -72.5 -36
t-64.5 -50.5t-50.5 -51t-34.5 -39.5l-12 -16q-33 -44 -49 -88.5t-16 -66.5v-22q6 -49 30 -88t57.5 -63t79 -41t87 -25t87.5 -12q77 -6 158.5 12t151.5 62.5t99 105.5q18 37 18 68.5t-11 51.5t-29 35.5t-34 22.5t-28 10zM414 74q-110 -5 -188 43.5t-78 122.5q0 73 77.5 125.5
t188.5 58.5q113 5 190 -37.5t77 -115.5q0 -74 -78.5 -133t-188.5 -64zM385 359q-30 -4 -53.5 -14.5t-37 -24t-23 -30.5t-13 -31t-4.5 -28.5t-0.5 -19.5t0.5 -8v-5q0 -3 2 -12t5.5 -17t12 -17t20.5 -16q67 -32 126 -19t95 59q13 18 18 43t-2 51.5t-23 48t-48.5 33.5t-74.5 7z
M347.5 164q-20.5 -2 -35 8.5t-14.5 27.5q0 18 13.5 33t33.5 17q23 2 38 -9.5t15 -28.5q0 -18 -15 -32t-35.5 -16zM435 238.5q-7 -5.5 -14.5 -4.5t-11.5 7t-2.5 14.5t8.5 13.5q9 6 16.5 5t11 -7.5t1.5 -14.5t-9 -13.5zM800 454q9 0 15.5 5.5t8.5 14.5v2q13 117 -81 134
q-28 6 -52 1q-10 0 -17.5 -7t-7.5 -17t7.5 -17.5t17.5 -7.5q32 7 50.5 1t26 -20t9.5 -28.5t0 -25.5l-2 -11q0 -10 7.5 -17t17.5 -7zM782 737q-52 12 -121 -1h-2l-1 -1l-1 -1q-11 -3 -18.5 -12.5t-7.5 -21.5q0 -15 10.5 -25t24.5 -10q19 2 32 7q6 0 18.5 1.5t33.5 -3.5
t42 -13t43.5 -27t37.5 -44q28 -61 11 -118q-7 -17 -7 -34q0 -14 10 -22.5t25 -8.5t23.5 5.5t10.5 23.5q19 58 14.5 104t-20 80.5t-43.5 59.5t-56.5 39.5t-58.5 21.5z" />
    <glyph glyph-name="uniE61E" unicode="&#xe61e;" 
d="M962 281q0 94 -81.5 162.5t-189.5 68.5q-113 0 -192 -68t-79 -163.5t79 -163.5t192 -68q32 0 96 16l87 -47l-24 79q112 84 112 184zM603 320q-12 0 -22 10t-10 22t10 22t22 10q18 0 29 -9.5t11 -22t-11 -22.5t-29 -10zM778 320q-11 0 -21 10t-10 22t10 22t21 10
q18 0 29 -9.5t11 -22t-11 -22.5t-29 -10zM671 529q14 0 31 -2q-21 96 -112.5 159.5t-209.5 63.5q-86 0 -159 -35.5t-116 -98t-43 -136.5q0 -126 127 -215l-31 -96l111 56q81 -16 111 -16q14 0 30 1q-10 34 -10 67q0 104 79 178t192 74zM500 615q18 0 29 -11t11 -29t-11 -29
t-29 -11q-19 0 -33.5 11.5t-14.5 29t14.5 28.5t33.5 11zM277 535q-19 0 -33.5 11.5t-14.5 29t14.5 28.5t33.5 11q18 0 29 -11t11 -29t-11 -29t-29 -11z" />
    <glyph glyph-name="uniE61F" unicode="&#xe61f;" 
d="M200 770h756l-134 -670l-403 -134l-351 134l36 179h149l-15 -74l212 -81l244 81l34 170h-606l29 150h607l19 96h-607z" />
    <glyph glyph-name="uniE620" unicode="&#xe620;" 
d="M511 819q-89 0 -169.5 -34.5t-139 -93t-93.5 -139.5t-35 -170t35 -170t93.5 -139.5t139 -93t169.5 -34.5t170 34.5t139.5 93t93 139.5t34.5 170t-34.5 170t-93 139.5t-139.5 93t-170 34.5zM383 41q-55 21 -102 59q87 146 165 248q38 -72 66 -110q9 -11 10 -14
q-59 -85 -139 -183zM575 150q38 -56 69 -107q-53 -21 -111 -24q21 68 42 131zM198 197q-27 45 -40 95q131 46 251 62q-77 -77 -211 -157zM537 361q31 -2 63 -7q-10 -20 -23 -45q-23 27 -40 52zM537 437h-18q74 99 153 272q31 -15 58 -36q-54 -135 -91 -227q-55 -7 -102 -9z
M825 568q22 -38 34 -78q-61 -16 -119 -27q40 52 85 105zM551 744q-32 -179 -68 -286q-55 135 -49 280q38 8 77 8q19 0 40 -2zM294 674q50 -117 97 -216q-97 27 -207 84q39 80 110 132zM768 124q-84 68 -151 140q12 29 22 49q7 14 17 30q101 -24 201 -75q-27 -82 -89 -144z
" />
    <glyph glyph-name="uniE621" unicode="&#xe621;" 
d="M486 -65q-61 10 -62 10q-133 26 -230.5 123t-122.5 230q-23 116 13.5 225t119.5 187t194 106q122 32 240 -4.5t201.5 -127.5t107.5 -214q0 -4 10 -67v-39q-10 -66 -11 -70q-24 -130 -123 -227.5t-228 -120.5q-5 -1 -63 -11h-46zM358 327q22 -3 37.5 13t15.5 37
q1 22 -14.5 37.5t-37 15.5t-37 -15.5t-15.5 -36.5q0 -23 16.5 -38.5t34.5 -12.5zM513 327q23 0 37.5 14t14.5 37q0 22 -15 37t-37 15t-37 -15t-14.5 -37.5t14.5 -36.5t37 -14zM666 327q24 0 38 14t14 37t-15 37.5t-37 14.5q-21 0 -35.5 -14.5t-15.5 -36.5q-1 -20 14.5 -37.5
t36.5 -14.5z" />
    <glyph glyph-name="uniE622" unicode="&#xe622;" 
d="M957 368q-1 -9 -3.5 -26t-5 -31t-5.5 -26q-73 -276 -344 -334q-119 -25 -230.5 11.5t-190.5 124t-105 206.5q-27 121 11.5 235.5t128 194t209.5 102.5q117 23 227.5 -13.5t187 -119.5t104.5 -193q3 -11 5 -23.5t4 -27.5t3 -24q1 -1 4 -17v-39zM518 549q-11 -9 -12 -10
q-11 -10 -35 -33t-43 -40t-37 -31q-59 -45 -51 -116q3 -4 2 -64.5t-1 -65.5q0 -17 5.5 -22t22.5 -5h84q12 0 16.5 5t4.5 16v36v36q-1 9 2.5 12.5t12.5 3.5q25 -1 57 0q8 0 11.5 -3.5t3.5 -11.5q-1 -16 -1 -73q1 -22 21 -21h83q20 0 25.5 5.5t5.5 25.5v177q0 17 -12 28
q-6 5 -79 72q-24 22 -86 79zM622 573q-10 8 -24.5 21.5t-26 24t-21.5 19.5q-19 17 -32.5 17.5t-31.5 -16.5q-64 -58 -157 -144q-42 -37 -55 -50q-17 -16 -10 -36q8 -24 27 -24q20 1 34 13q27 24 175 160q2 1 18 15q11 -10 12 -11q149 -136 180 -163q14 -13 34 -14
q21 -1 28 24q6 21 -11 36q-58 54 -66 61q-14 12 -13 29v78q0 26 -5 31t-32 4q-15 0 -19 -4.5t-4 -19.5v-51z" />
    <glyph glyph-name="uniE623" unicode="&#xe623;" 
d="M488 100q101 109 182.5 233t81.5 194q0 108 -78 186t-186 78q-108 3 -186 -75t-78 -189q0 -70 81.5 -194t182.5 -233zM488 28q-13 13 -34 36t-74.5 88.5t-95 125t-75 130t-33.5 119.5q0 129 91 220.5t221 91.5t221 -91.5t91 -220.5q0 -133 -227 -404q-48 -57 -85 -95v0z
M488 421q43 0 74.5 31.5t31.5 74.5t-31.5 74t-74.5 31t-74.5 -31t-31.5 -74t31.5 -74.5t74.5 -31.5zM488 373q-65 0 -109.5 44.5t-44.5 109.5t44.5 109t109.5 44t109.5 -44t44.5 -109t-44.5 -109.5t-109.5 -44.5v0zM613 128v-48q112 -21 139 -48q-19 -19 -89 -38t-175 -19
q-102 0 -173.5 19t-90.5 38q13 14 51.5 28t97.5 20v48q-87 -11 -142 -37t-55 -59q0 -43 91.5 -74t220.5 -31t220.5 31t91.5 74q0 33 -52 59t-135 37z" />
    <glyph glyph-name="uniE624" unicode="&#xe624;" 
d="M588 384q0 -37 -24 -62.5t-58 -25.5t-58 25.5t-24 62.5t24 62.5t58 25.5t58 -25.5t24 -62.5zM796 536l-12 -38h-7l-6 6h-6l-7 6h-19l-6 7h-13l-12 6h-13l-13 6h-31l-13 7h-31l-13 6h-88v44h82l12 -6h38l7 -6h37l7 -7h19l12 -6h13l6 -6h19l7 -7h12l7 -6h6zM954 384h-38v13
l-6 6v6l-13 13v6h-6v7l-6 6h-7v6h-6l-13 13h-6l-13 12h-6l-6 7h-7l-6 6h-6l-7 6h-12l-7 7l13 38h6l13 -7h6l7 -6h12l13 -13h6l13 -12h6l19 -19h6l19 -19v-6h7l6 -7v-6l6 -6v-7l7 -6v-13l6 -6v-19zM784 220l-7 38l7 6h6l13 6h6l13 13h6l6 6h13l25 26h6l7 6v6h6l6 7v6h7v6l6 7
v6h6v25h38v-31h-6v-13l-6 -6v-7l-13 -12v-7l-13 -12h-6v-7l-19 -19h-6l-13 -12l-13 -7h-6l-12 -12h-13l-13 -13h-12l-7 -6h-12zM506 176v44h101l12 6h32l13 6h31l6 7h13l13 6h12l7 6h12l7 7h12l7 -38l-7 -6h-6l-6 -7h-13l-13 -6h-12l-13 -6h-13l-6 -7h-38l-6 -6h-51l-6 -6
h-88zM228 220l12 38h7l6 -7h13l6 -6h19l6 -6h13l6 -7h26l12 -6h44l7 -6h101v-45h-95l-6 7h-51l-6 6h-25l-13 6h-13l-12 7h-13l-6 6h-19l-7 6h-6zM64 384h37v-25h7v-7l6 -6v-6h6v-7l19 -19h7v-6l6 -6h6l13 -13h6l7 -6h6l13 -13h12l7 -6h6l13 -6l-13 -38h-13l-6 6h-13l-12 13
h-7l-12 6l-7 6h-6l-19 19h-6l-25 26v6h-7l-12 12v7l-7 6v6l-6 7v12l-6 7v25zM215 536l13 -38l-7 -7h-6l-6 -6h-13l-6 -6h-7l-12 -13h-6l-7 -6h-6v-7l-6 -6h-7l-6 -6v-7h-6l-13 -12v-7l-6 -6v-6h-7v-19h-38v19l7 6v13l6 6v6l6 7v6h7l6 6v7l13 12h6v7l13 12h6l13 13h6l6 6
l13 7h6l13 12h12l7 7h6zM506 586v-44h-82l-13 -6h-38l-6 -7h-26l-12 -6h-25l-7 -6h-19l-6 -7h-6l-7 -6h-19l-6 -6h-6l-13 37l6 7h13l6 6h13l13 6h6l6 7h19l7 6h31l6 6h26l12 7h38l13 6h76zM531 744l25 -38h-6l-13 -13v-6l-44 -44v-13l-25 -25l-7 -13l-12 -12v-13l-13 -12
l-6 -13l-13 -13v-12l-6 -7l-6 -12l-7 -7l-6 -12v-7l-6 -12l-38 25l6 6l6 13l7 6l6 13l6 6v13l7 6l6 13l6 6l7 13l6 6l6 13l13 12v13l19 19l6 13l32 31l6 13l6 6v7zM733 820l-19 -38h-6l-7 6h-25l-6 -6h-13l-6 -6h-6l-7 -7h-6l-6 -6h-7l-12 -13h-7l-44 -44l-25 38l25 25l13 7
h6l19 18h6l13 13h6l7 6h6l6 7h7l6 6h25l6 6h19l7 -6h12l7 -6h6zM771 573l-38 7l6 12v38l7 7v69l-7 6v26h-6v19h-6v12h-7v7h-6v6l19 38v-6h6l13 -13v-6h6v-7l7 -6v-6l6 -7v-12l6 -13v-25l7 -13v-69l-7 -13v-44zM664 277l-32 25l13 13v12l6 6l6 13v6l7 13l6 6v13l6 6l7 13v6
l6 7v12l6 7v12l7 7v6l6 13v6l6 12v7l7 6v19l6 6v19l6 7v25l38 -6v-19l-6 -7v-19l-7 -12v-13l-6 -12v-7l-6 -12v-7l-7 -6v-13l-6 -6v-13l-6 -6v-13l-6 -6v-13l-7 -6l-6 -13v-6l-6 -13l-7 -6v-12l-6 -7l-6 -12v-7l-7 -12l-6 -7zM493 24l-25 32l44 44v6l6 6l7 13l19 19v6l6 7
l6 12l13 13l6 13v6l7 6l6 13l13 13l6 12v6l6 13l7 6l6 13v6l6 13l32 -25v-7l-7 -12l-6 -7l-6 -12l-7 -6v-13l-6 -6l-6 -13l-7 -6l-6 -13l-6 -6v-7l-7 -12l-12 -13l-6 -13l-19 -19v-12l-38 -38l-7 -13l-6 -6v-6l-6 -7h-7zM285 -58l19 38h6l6 -7h26l6 7h12l7 6h12l7 6h6l6 7h7
v6l6 6h6l13 7l38 38l25 -32l-6 -13l-13 -6l-19 -19h-6l-19 -19l-13 -6h-6l-6 -6h-7l-6 -7h-6l-7 -6h-6l-6 -6h-19l-7 -7h-25l-6 7h-13l-6 6h-6zM240 176l38 -13v-25l-6 -7v-82l6 -6v-25l7 -7v-12h6v-7l13 -12l-19 -38l-26 25v6l-6 7v6l-6 6v13l-7 6v26l-6 12v82l6 13v32z
M348 485l38 -25l-7 -7l-6 -12l-6 -7v-12l-7 -6l-6 -13v-13l-6 -6l-7 -13v-6l-6 -13l-6 -6v-13l-7 -6v-13l-6 -6v-13l-6 -6v-12l-7 -7v-12l-6 -7v-19l-6 -6v-19l-7 -6v-19l-6 -7v-12l-38 12l7 7v25l6 13v19l6 6v12l6 7v12l7 7v12l6 7v12l6 7v12l7 7v12l6 13v6l6 13l7 6v13
l6 6l13 25v7l12 25l7 6v13zM240 580l38 12l7 -6v-25l6 -13v-12l6 -13v-6l7 -13v-13l6 -12v-7l6 -12v-7l7 -12v-7l6 -12l6 -6v-13l7 -6v-13l6 -6l6 -13v-6l7 -13l6 -6v-13l6 -6l7 -13l6 -6l-32 -26l-6 13l-6 6l-7 13l-6 6v13l-6 13l-7 6v13l-6 6l-6 13v6l-13 25v7l-6 12v6
l-7 13v6l-6 13v6l-6 13v6l-7 13v19l-6 6v19l-6 7v19zM285 820l19 -38v-6h-7v-7h-6v-6l-6 -6v-13h-7v-25l-6 -7v-75l6 -7v-38l-38 -12v44l-6 6v89l6 6v25l7 7v12l6 7v6l13 13v6zM285 820zM493 731l-25 -31l-51 50h-6l-13 13h-6l-6 6h-7l-6 7h-13l-6 6h-19v6h-13l-6 -6h-13
l-18 38h12v6h63l7 -6h6l6 -7h7l6 -6h6l7 -6h12l19 -19h7l12 -13l13 -6l19 -19zM664 485l-32 -25l-6 12v7l-7 12l-12 13v13l-7 6l-6 13l-13 12v13l-19 19l-6 12v7l-25 25l-6 13v6l-38 38v6l-7 7h-6l-6 6l25 31l6 -6h7l25 -25v-13l38 -38l6 -12v-7l13 -12l6 -13l13 -12l6 -13
v-6l6 -7l7 -12l12 -13v-13l7 -6l6 -13l6 -6l7 -13v-6zM632 460zM777 182l-38 -6v6l-6 13v12l-6 6v19l-7 13v13l-6 12v7l-6 6v13l-7 6v13l-6 6v13l-13 12v13l-6 6v13l-6 6l-7 13v6l-6 13l-6 6l-7 13v6l-6 13l-6 6l31 25l7 -12l6 -7l6 -12v-7l7 -12l6 -7l6 -12v-13l7 -6l6 -13
v-6l6 -13l7 -6v-13l6 -6v-13l6 -6v-13l7 -6v-13l6 -6v-13l6 -6v-19l7 -6v-13l6 -6v-26zM733 -58l-19 38v6h6v6h7v7l6 6v6l6 7v25l7 6v89l-7 6v32l38 6v-32l7 -6v-101l-7 -6v-26l-6 -6v-13l-6 -6v-6l-7 -6v-7zM733 -58zM537 18l26 31l44 -44h6l6 -6h7l6 -7h6l7 -6h6v-6h19
l6 -7h32v7h6l19 -38h-6l-6 -6h-13l-6 -7h-26l-6 7h-19l-6 6h-13l-6 6h-7l-6 6h-6l-13 13h-6zM354 277l32 25l6 -13v-12l6 -7l7 -12l12 -13v-13l7 -6l6 -13l6 -6l7 -13l12 -12l7 -13v-6l12 -13l7 -12l31 -32v-6l51 -51l-26 -31l-69 69l-6 13l-13 12v7l-6 12l-13 13l-6 13
l-13 12l-6 13l-7 6l-6 13l-6 6v13l-7 6l-6 13l-6 6l-13 25v7z" />
    <glyph glyph-name="uniE625" unicode="&#xe625;" 
d="M747.5 576q-53.5 0 -91 37.5t-37.5 90.5t37.5 91t91 38t91 -38t37.5 -91t-37.5 -90.5t-91 -37.5zM747.5 790q-35.5 0 -60.5 -25t-25 -60.5t25 -61t60.5 -25.5t60.5 25.5t25 61t-25 60.5t-60.5 25zM383 383q-10 0 -17 8q-5 7 -4 16t8 14l279 214q7 6 15.5 4.5t14 -8.5
t4.5 -15.5t-8 -14.5l-279 -214q-6 -4 -13 -4zM640 83q-5 0 -10 2l-168 96q-7 5 -9.5 13.5t2 16t13 10t15.5 -2.5l168 -95q8 -5 10 -13.5t-2 -16.5q-6 -10 -19 -10zM747.5 -67q-53.5 0 -91 37.5t-37.5 90.5t37.5 91t91 38t91 -38t37.5 -91t-37.5 -90.5t-91 -37.5zM747.5 147
q-35.5 0 -60.5 -25t-25 -60.5t25 -60.5t60.5 -25t60.5 25t25 60.5t-25 60.5t-60.5 25zM276 233q-53 0 -91 37.5t-38 90.5t38 91t91 38t91 -38t38 -91t-38 -90.5t-91 -37.5zM276 447q-35 0 -60.5 -25t-25.5 -60.5t25.5 -60.5t60.5 -25t60.5 25t25.5 60.5t-25.5 60.5t-60.5 25
z" />
    <glyph glyph-name="uniE626" unicode="&#xe626;" 
d="M216 138l-79 375l225 -188l150 375l150 -375l225 188l-79 -375h-592zM437 700q0 -31 22 -53t53 -22t53 22t22 53t-22 53t-53 22t-53 -22t-22 -53zM812 513q0 -31 22 -53t53 -22t53 22t22 53t-22 53t-53 22t-53 -22t-22 -53zM62 513q0 -31 22 -53t53 -22t53 22t22 53
t-22 53t-53 22t-53 -22t-22 -53zM212 100h600v-112h-600v112z" />
    <glyph glyph-name="uniE627" unicode="&#xe627;" 
d="M784 92q-26 -10 -53 -10q-60 0 -102 45.5t-41 108.5q1 20 13 47q24 52 83 122q13 16 37 42q11 12 22 0q71 -77 107 -139q22 -38 25 -65q5 -48 -21 -90.5t-70 -60.5zM675.5 323.5q-7.5 6.5 -14.5 -0.5q-39 -47 -39 -97q0 -13 6 -37q3 -11 12 -9q11 2 8 14v3l-1 2
q-14 52 17 94q2 2 6 7.5t7 8.5q6 8 -1.5 14.5zM529 354q-89 -109 -218 -75q-126 34 -158 175q-2 7 -3 17q0 2 -1 21q-2 38 20 86q30 68 103 160q35 45 75 87q17 18 33 1q115 -125 167 -224q27 -50 31 -86q8 -91 -49 -162zM279 638.5q-11 10.5 -22 -2.5q-10 -13 -19 -25
q-39 -57 -38 -116q-1 -21 9 -62q2 -9 8 -12t13 0q12 5 8 23q-19 71 9 123q12 22 33 48q10 13 -1 23.5zM469 150q7 7 13 0q50 -54 72 -97q19 -39 -7 -79.5t-72 -39.5q-36 1 -60.5 27t-23.5 62q0 14 7 29q20 43 71 98zM411 20q0 -9 3 -19q2 -10 8 -8.5t3 10.5q-7 27 6 48
q3 5 11 17q4 5 0 9t-9 -1q-23 -28 -22 -56z" />
    <glyph glyph-name="uniE628" unicode="&#xe628;" 
d="M654 457q0 17 -11.5 28t-28.5 11q-16 0 -24.5 -10.5t-8.5 -28.5q0 -17 11 -28t28 -11q16 0 25 12.5t9 26.5zM468 457q0 17 -11 28t-28 11q-13 0 -23.5 -11t-10.5 -28t11.5 -28t27.5 -11q14 4 24 15.5t10 23.5zM508 834q-111 0 -205.5 -55.5t-150 -150t-55.5 -205.5v-213
q0 -17 11 -28.5t28 -11.5t28.5 11.5t11.5 28.5v213q0 91 45 169t121.5 123.5t165.5 45.5q91 0 167.5 -45.5t120 -123t43.5 -169.5v-377q0 -16 -11 -27.5t-28 -11.5t-28 11.5t-11 27.5q0 47 -33 80t-79.5 33t-79.5 -33t-33 -80q0 -16 -11.5 -27.5t-28.5 -11.5t-28 11.5
t-11 27.5q0 47 -33 80t-79.5 33t-79.5 -33t-33 -80q0 -16 -11.5 -27.5t-28 -11.5t-28 11.5t-11.5 28t-11 28t-28 11.5q-7 0 -10.5 -1.5t-5 -6t-2 -8t0 -12t0.5 -12.5q0 -46 33 -79t79.5 -33t79.5 33t33 79q0 17 11 28.5t28 11.5t28.5 -11.5t11.5 -28.5q0 -46 33 -79
t79.5 -33t79.5 33t33 79q0 17 11 28.5t28 11.5t28 -11.5t11 -28.5q0 -46 33.5 -79t79.5 -33t79 33t33 79v377q-6 84 -41.5 159.5t-91 131t-131 88t-157.5 32.5z" />
    <glyph glyph-name="uniE629" unicode="&#xe629;" 
d="M116 384.5q0 107.5 53 198.5t144 144t198.5 53t199 -53t144.5 -144t53 -199h51q0 91 -35 174q-34 81 -96 143t-142 95q-83 36 -174 36t-174 -36q-81 -33 -142.5 -95t-95.5 -143q-36 -83 -36 -174t36 -174q34 -80 95.5 -142t142.5 -96q83 -35 174 -35v51q-108 0 -199 53
t-144 144.5t-53 199zM907 330l-578 237l237 -578l94 211l232 -232l36 36l-232 232z" />
    <glyph glyph-name="uniE62A" unicode="&#xe62a;" 
d="M914 632v-352l-97 98l-34 35l-28 -40q-14 -19 -46 -52q-66 -67 -166 -144q-37 -22 -77 -32q-38 -10 -78 -10q-87 0 -182 44q129 27 249 110q106 72 201 199l21 28l-114 116h351zM955 673h-490l158 -160q-91 -122 -191 -191q-76 -52 -162 -82.5t-165 -30.5q-15 0 -30 1
q18 -14 41 -28t66.5 -37t98 -37t107.5 -14q96 0 179 49q74 58 129.5 109.5t73.5 73.5l18 23l167 -169v493zM69 214l5 -4h1q-2 1 -4 3z" />
    <glyph glyph-name="uniE62B" unicode="&#xe62b;" 
d="M929 370q-59 0 -225 -69q-26 -10 -50 -21q19 19 37 39q67 75 108 135q44 64 30 77q-3 3 -9 3q-19 0 -73.5 -49t-113.5 -114q0 -1 -1 -1.5t-1 -1.5q1 2 1 4q38 94 56 163q19 76 1 83q-2 1 -4 1q-12 0 -32 -29.5t-41 -75t-32.5 -71.5t-19.5 -46q-2 -5 -5 -13q-1 -2 -3 -7
v51q0 23 -0.5 52t-4 79.5t-12 84.5t-20.5 35l-2 1h-3q-13 0 -21.5 -33.5t-11.5 -85t-4 -81t-1 -52.5v-51q0 2 -2 4q0 2 -1 3q-3 8 -5 13q-7 16 -17 40t-32 71t-42.5 78t-33.5 31q-2 0 -4 -1q-18 -7 2 -82q17 -69 55 -163q0 -1 1 -3q0 1 -1 1.5t-1 1.5q-59 65 -113.5 114
t-73.5 49q-6 0 -9 -3q-14 -13 30 -77q41 -60 108 -135q17 -18 36 -38l-1 -1q-24 11 -48 21q-166 69 -225 69q-17 0 -20 -9q-2 -5 0.5 -10.5t17 -17.5t42.5 -28q62 -37 156 -75q31 -14 63 -25h-20h-10q-27 0 -57 -1t-76.5 -4t-76.5 -11.5t-30 -20.5q0 -20 77 -30
q71 -10 172 -11q11 0 34 -1q26 -1 39 -1q24 -18 47 -20q5 -1 9 -1h86q4 0 9 1q23 2 47 20h44q18 1 27 1q101 0 173 10q77 11 77 31q0 19 -74 28q-68 10 -166 10l-15 -1q30 12 63 26q21 8 48 20.5t72.5 35t73 43t22.5 32.5q-3 9 -20 9z" />
    <glyph glyph-name="uniE62C" unicode="&#xe62c;" 
d="M929 807q3 -53 10 -179q7 -125 8 -145q2 -21 -12 -35q-33 -30 -106 -104q-8 -9 -18 -4q-47 23 -97 26t-94.5 -12.5t-81.5 -45t-61.5 -73.5t-29.5 -95q-8 -79 29 -148q-33 -30 -38 -36l-362 361q6 6 9 10l489 489q11 11 26 10q23 -2 329 -19zM845 652q1 28 -19.5 49.5
t-49.5 22.5q-27 1 -48.5 -19.5t-22.5 -48.5q-1 -29 19 -50.5t49 -22.5q28 -2 49.5 19t22.5 50zM694 -101q-89 1 -151.5 63.5t-62.5 151.5t63.5 151.5t152.5 62.5t151 -63t61 -153q0 -88 -62.5 -150.5t-151.5 -62.5zM730 150v66q-1 14 -11 23.5t-24 9.5q-16 0 -26 -10
t-11 -27v-62h-62q-16 -1 -26.5 -10.5t-10.5 -23.5q-1 -16 9 -26.5t26 -11.5h63q1 -4 1 -5v-55q0 -18 10.5 -29.5t26.5 -11.5q16 1 25.5 12t9.5 29v18v22v20h60q18 0 29.5 10t11.5 25.5t-11.5 25.5t-30.5 11h-59z" />
    <glyph glyph-name="uniE62D" unicode="&#xe62d;" 
d="M833 526h-363l41 -102l4 1h35q172 0 345 -27l8 -2l-20 90q-4 17 -18.5 28.5t-31.5 11.5zM393 611l6 1l-10 92q-2 18 -15.5 30.5t-30.5 12.5q-108 -5 -210 -88q-12 -10 -20.5 -28.5t-8.5 -35.5v-83l9 6q113 70 280 93zM104 411q0 -12 -3 -27l-2 -10l9 3q31 7 33 7l5 1v6
q-2 21 -1.5 38.5t2.5 28t4 11.5q5 -2 8.5 -24t3.5 -49v-7l40 7l-1 6q-9 74 6 92q2 2 4 3q2 0 4 -2q15 -16 12 -87v-7l50 7v6q-3 43 0.5 75.5t11.5 32.5q7 0 16 -31t12 -72l1 -6l45 4l-1 7q-5 28 -5 69.5t9 51.5q2 2 4 2q10 0 22 -34t20 -87l1 -5h6q28 2 51 3h9l-80 176
l-4 -1q-177 -24 -289 -99l-3 -2v-87zM93 360l-1 -2q-1 -3 -2 -4q-16 -25 -16 -62v-79l8 1q35 9 38 9l5 1v5q-2 27 0 50.5t5 25.5q10 -6 11 -71l1 -7l6 1l27 5l5 1v6q-9 72 4 89q2 2 4 2t3 -1q14 -15 12 -85v-7l48 7v6q-3 40 0 72t10 32t15 -30t12 -70v-6l48 5l-1 6
q-10 90 3 107q1 1 2 1q7 0 17.5 -31.5t17.5 -73.5l1 -5l43 2v7q-4 15 -1.5 54t12.5 51q4 4 10 4q12 0 29 -34.5t28 -73.5l1 -5h5q28 1 43 1h10l-70 148h-4q-219 -6 -386 -51zM558 252q-270 1 -479 -51l-5 -1v-73q0 -17 12.5 -29.5t29.5 -12.5h13v7q-2 22 -1.5 37.5t2.5 24.5
t4 10q10 -6 11 -73v-6h38l-1 7q-8 67 5 84q2 2 4 2t3 -1q15 -14 12 -85v-7h48l-1 7q-3 38 0.5 68t10.5 30q4 0 9 -12t10 -35t8 -52v-6h48l-1 7q-10 93 5 110q4 0 10 -13.5t13 -39.5t12 -59l1 -5h48l-1 7q-4 20 -3 67t12 60q4 4 8 4q13 0 31.5 -41.5t31.5 -89.5l5 1l29 -1v-2
l12 3q-24 92 -17 109q9 -4 32.5 -38t47.5 -76l1 -3h42l-97 167h-3zM797 362q11 0 26.5 -34t28.5 -78l1 -4l4 -1q42 -5 75 -10l9 -1l-35 150h-4q-177 29 -352 29h-25h-9l60 -149h4q12 -1 32 -1h8l-2 7q-21 81 -5 102q3 4 8 4q16 0 30 -35.5t21 -74.5v-5h5q21 -1 32 -2l9 -1
l-2 8q-22 81 -9 99q1 2 4 3q11 0 26.5 -33t27.5 -76l1 -4l38 -4l-2 9q-8 28 -11 56t2 44q2 2 4 2zM944 221l-4 1q-174 27 -346 30h-11l100 -167h33l-2 8q-25 95 -9 117q3 4 8 4q14 0 28.5 -37t23.5 -87l1 -5h44l-2 8q-22 91 -9 110q1 2 3 2q10 0 25 -32.5t29 -82.5l1 -5h35
l-2 8q-19 86 -5 105q1 2 4 2q10 0 24.5 -29.5t28.5 -76.5l3 -7l6 4q20 12 14 37z" />
    <glyph glyph-name="uniE62E" unicode="&#xe62e;" 
d="M95 834h834l-68 -792l-354 -108l-336 108zM763 594l20 120l-537 1l35 -360h349v-94l-117 -41l-122 43l-8 51l-96 -1l15 -127l205 -72l216 69l28 290h-380l-10 121h402zM763 594z" />
    <glyph glyph-name="uniE62F" unicode="&#xe62f;" 
d="M510 832q-92 0 -175.5 -35.5t-144 -96t-96 -144t-35.5 -175t35.5 -175t96 -144t144 -96.5t175 -36t175.5 36t144 96.5t96 144t36 175t-35.5 175t-96 144t-144 96t-175.5 35.5zM669 357l-224 -225q-10 -10 -24.5 -10t-24.5 10t-10 24t10 25l200 200l-199 198
q-10 10 -10 24t10 24t24 10t24 -10l224 -222q10 -10 10 -25q0 -13 -10 -23z" />
    <glyph glyph-name="uniE630" unicode="&#xe630;" 
d="M842 331q19 0 32.5 25t17 54.5t-9.5 54t-40 24.5h-159q33 55 52.5 101t25 77.5t3 57t-11.5 40t-22 24.5t-24.5 13.5t-22.5 3.5q0 -65 -60.5 -143t-156 -141.5t-193.5 -93.5v-374h-47v374h47v45h-91q-22 0 -35.5 -15.5t-13.5 -47.5v-323q0 -33 14 -56t35 -23h91v46
q61 -6 104 -18t65.5 -24.5t46.5 -23.5t65 -18.5t103 -7.5q43 0 74.5 21t31.5 58q24 0 42.5 34.5t19.5 63.5t-10 34q29 0 48 50q20 55 5 90q-8 18 -26 18v0z" />
    <glyph glyph-name="uniE631" unicode="&#xe631;" 
d="M970 548l-454 243l-455 -243l455 -243zM516 709l310 -166l-310 -144l-310 144zM516 226l-408 199l-27 -74l435 -212l434 212l-26 74zM516 52l-408 199l-27 -74l435 -212l434 212l-26 74zM516 52z" />
    <glyph glyph-name="uniE632" unicode="&#xe632;" 
d="M271 408l-1 -2l-1 -1q-7 -15 -4.5 -32.5t15.5 -28.5l391 -370q16 -16 38 -15t37 17t14.5 38t-16.5 37l-351 332l350 337q15 15 15.5 37t-14.5 38q-16 16 -38 16t-37 -15l-387 -373l-2 -1v-2l-2 -1q-2 -2 -7 -11zM271 408z" />
    <glyph glyph-name="uniE633" unicode="&#xe633;" 
d="M927 433q-32 -18 -93 -25q93 80 115 149q39 119 3 236q-4 12 -15.5 14t-18.5 -8q-99 -142 -244 -169q19 38 28.5 60.5t18 59t5.5 67.5q-1 12 -12.5 16t-19.5 -5q-70 -71 -133 -97t-141 -27q-80 -1 -152 -36t-125 -98q-52 -61 -74.5 -137.5t-10.5 -153.5
q20 -124 105.5 -210t209.5 -106q31 -5 62 -5q103 0 189.5 52t138.5 145q13 23 36 39q102 69 145 177q4 10 9 33l2 8q3 12 -7 19.5t-21 1.5zM98 307q4 -14 17.5 -26t29 -19.5t31.5 -12.5t25.5 -7t10.5 -2q-23 -25 -43.5 -26.5t-32.5 11t-22 34.5t-12.5 32t-3.5 16zM335 240
q8 1 22 3t53 9.5t73 17t72 26.5t60 36q-2 -5 -6.5 -14.5t-20 -33.5t-32 -43t-42.5 -37t-52 -22.5t-60 9t-67 49.5z" />
    <glyph glyph-name="uniE634" unicode="&#xe634;" 
d="M549 721zM439 806h144v-95h-144v95zM345 618h329v-95h-329v95zM252 430h516v-94h-516v94zM157 242h705v-92h-705v92zM64 54h896v-92h-896v92z" />
    <glyph glyph-name="uniE635" unicode="&#xe635;" 
d="M512 831q-91 0 -173.5 -35.5t-142.5 -95.5t-95.5 -142.5t-35.5 -173.5t35.5 -173.5t95.5 -142.5t142.5 -95.5t173.5 -35.5t173.5 35.5t142.5 95.5t95.5 142.5t35.5 173.5t-35.5 173.5t-95.5 142.5t-142.5 95.5t-173.5 35.5zM712 414h-164v-79h164v-52h-164v-144h-72v144
h-164v52h164v79h-164v51h138l-94 164h80l76 -136l76 136h80l-94 -164h138v-51z" />
    <glyph glyph-name="uniE636" unicode="&#xe636;" 
d="M255 133q183 0 217 194l54 302h-109l-51 -291q-21 -145 -135 -140q-71 -2 -136 61l-12 -70q55 -59 172 -56zM695 135q201 0 224 144q20 115 -171 154q-88 13 -74 70q9 63 86 63q67 -3 78 -82h104q-1 147 -172 152q-176 -3 -206 -133q-38 -122 164 -156q90 -16 79 -75
q-15 -74 -116 -74q-108 2 -172 113l-15 -86q59 -97 191 -90z" />
    <glyph glyph-name="uniE637" unicode="&#xe637;" 
d="M490 682l213 -60q-37 109 -124 196q-36 5 -67 5q-47 0 -96 -10q45 -58 69 -116q2 -5 5 -15zM161 418q17 102 61 191t109 153q22 21 50 41q-136 -43 -222 -158t-86 -261q0 -162 107 -286q-50 148 -19 320zM809 591q-16 80 -51 147q-1 3 -4 7.5t-4 7.5q-63 41 -139 59
q81 -88 115 -197zM286 288q0 116 49 219t134 176q-24 61 -65 114q-35 -25 -60 -49q-62 -62 -104.5 -148t-60.5 -185q-32 -186 33 -346q52 22 101 58q-27 80 -27 161zM913 562q-45 99 -129 166q31 -66 46 -142zM922 540l-444 125q-83 -72 -127 -171q263 -38 463 -83
q65 -15 136 -49q1 14 1 22q-1 80 -29 156zM343 476q-24 -58 -31 -116q278 -80 373 -106q126 -36 230 -46q28 64 34 133q-73 37 -139 51q-86 20 -201 40.5t-179 30.5t-87 13zM308 341q-3 -35 -3 -53q0 -76 25 -154q158 -46 306 -74q66 -13 150 -18q76 61 119 148
q-101 11 -226 46q-235 65 -371 105zM329 115q-2 -1 -5.5 -3.5t-4.5 -3.5q-42 -30 -95 -54q59 -52 134 -80q97 26 177 88q-116 26 -206 53zM668 35q-12 2 -35 6q-50 10 -74 15q-76 -62 -170 -93q60 -18 123 -18q16 0 46 3q60 30 110 87zM612 -43q83 19 151 67q-39 3 -69 8
q-38 -43 -82 -75z" />
    <glyph glyph-name="uniE638" unicode="&#xe638;" 
d="M216 547q-97 0 -157 -15v-155h28q11 0 19 -8.5t8 -20.5q0 -11 -7 -19.5t-17 -9.5q10 -1 17 -9.5t7 -19.5t-7 -19.5t-17 -9.5q10 -1 17 -9.5t7 -19.5q0 -12 -8 -21t-19 -9h-28v-155q60 14 152 14q46 0 89.5 -12.5t77.5 -33.5t57.5 -40.5t43.5 -41.5v505q-7 9 -15.5 19
t-31 27.5t-50 30.5t-71.5 22.5t-95 9.5zM934 377h31v154q-78 16 -176 16q-52 0 -96.5 -10.5t-71.5 -25t-49.5 -33t-31 -29.5t-14.5 -21v-495q20 22 43.5 42t57 40.5t77 33t90.5 12.5q97 0 171 -15v156h-31q-11 0 -19 9t-8 21q0 11 7 19.5t18 9.5q-10 1 -17.5 9t-7.5 19.5
t7 20t18 9.5q-10 1 -17.5 9.5t-7.5 19.5q0 12 8 20.5t19 8.5zM720 621q1 19 -16 28q-6 92 -56 141.5t-142 49.5t-142.5 -50t-55.5 -141q-18 -9 -16.5 -28t3.5 -40q82 -12 132.5 -44t75.5 -63q10 14 25 27.5t40.5 31.5t64.5 32.5t84 20.5z" />
    <glyph glyph-name="uniE639" unicode="&#xe639;" 
d="M884 491q-19 -5 -14 -25q13 -46 13 -99q0 -157 -111 -268t-268 -111t-268 111t-111 268t111 268t268 111q63 0 119 -19q8 -3 15.5 1t9.5 12q3 8 -1 15.5t-12 9.5q-63 21 -131 21q-173 0 -296 -123t-123 -296t123 -296t296 -123t296 123t123 296q0 57 -15 110
q-6 19 -24 14zM504 554q27 0 54 -8q20 -5 25 14q5 20 -14 25q-31 9 -66 9q-95 0 -161.5 -67t-66.5 -161t66.5 -161t161.5 -67q95 1 162 67.5t67 161.5q0 36 -10 67q-2 8 -9.5 11.5t-15.5 1.5q-18 -5 -13 -25q8 -29 8 -55q0 -78 -55 -133t-133 -55t-133 55t-55 133
q0 77 55 132t133 55zM647 538l-133 -133q-3 1 -10 1q-16 0 -28 -12t-12 -28t12 -28t28 -12t28 12t12 28q0 2 -0.5 5.5t-0.5 4.5l124 124l119 -21l172 172l-132 23l-24 133l-172 -172zM776 724l15 -84l84 -15l-103 -102l-83 14q0 2 -2 6l-14 79z" />
    <glyph glyph-name="uniE63A" unicode="&#xe63a;" 
d="M563 651h-64l-437 -508h146l318 378h6l280 -378h146zM514 331l-159 -197h328l-141 197h-28z" />
    <glyph glyph-name="uniE63B" unicode="&#xe63b;" 
d="M622 817l-403 -404l211 -211l403 404zM101 84l252 68l-181 181zM431 -36h120v120h-120v-120zM611 -36h120v120h-120v-120zM791 84v-120h120v120h-120z" />
    <glyph glyph-name="uniE63C" unicode="&#xe63c;" 
d="M529 330q149 227 200 271q-32 -76 -122 -218.5t-119 -198.5q31 -10 57.5 -14.5t50 0t40 9t38.5 20t33 24t35 28.5l-69 13q18 6 41.5 13.5t28 8.5t14.5 7.5t14 12t14 19.5q41 57 52 127l-57 -7q5 2 22.5 11.5t29 16.5t13.5 11q13 20 38 163t26 187q-51 -1 -114.5 -40
t-123 -101.5t-111.5 -134t-86 -143t-40 -122.5q-9 -80 -74 -217l-6 -16q2 3 23 36q72 112 152 234zM789 231q83 -49 83 -116q0 -39 -25.5 -71.5t-69.5 -53.5t-101 -35.5t-119.5 -18t-125.5 0t-119.5 18t-100.5 35.5t-70 53.5t-26 71.5t27.5 71.5t71 52.5t83.5 32t79 18
q-2 -20 -12 -45q-28 -5 -59 -14.5t-66 -25t-58 -39t-23 -50.5q0 -37 37 -66.5t96.5 -45t131 -22.5t143 0t130.5 22.5t96 45t37 66.5q0 48 -76 87q14 11 36 29z" />
    <glyph glyph-name="uniE63D" unicode="&#xe63d;" 
d="M514 442q52 -9 77 -40q36 44 92.5 44t92.5 -44q35 44 92 44q17 0 31.5 -8t22 -17t15.5 -15.5t14 -4.5t-12 34t-55 78t-83.5 93t-107.5 83.5t-118 44.5q-64 9 -78.5 9t-69.5 -10q-54 -10 -112 -46t-103 -81.5t-81 -90.5t-53 -77t-12 -36t13.5 6.5t22 24t28.5 13.5
q57 0 92 -44q36 44 92.5 44t92.5 -44q24 30 70 41zM526 763v48q0 8 -5 13t-12.5 5t-12.5 -5t-5 -13v-48h35zM469 465l-3 -417q0 -45 29 -78.5t73 -34.5q42 0 72 26.5t30 65.5v69q0 10 -7 17t-17 7t-17 -7t-7 -17v-69q0 -17 -15.5 -30.5t-38.5 -14.5q-21 0 -36 18
q-18 20 -17 48l3 418z" />
    <glyph glyph-name="uniE63E" unicode="&#xe63e;" 
d="M866 492l-232 223l54 52q39 37 93.5 37t92.5 -37l47 -45q38 -37 38 -89.5t-38 -89.5zM820 447l-383 -363l-231 221l381 365zM327 -23h-263l-1 191l97 92l233 -220z" />
    <glyph glyph-name="uniE63F" unicode="&#xe63f;" 
d="M841 164q-49 0 -84 34.5t-35 83t35 83t84 34.5t83.5 -34.5t34.5 -83t-34.5 -83t-83.5 -34.5zM841 361q-33 0 -56.5 -23.5t-23.5 -56t23.5 -55.5t56.5 -23t56 23t23 55.5t-23 56t-56 23.5zM409 -28q-94 0 -173 45t-125 122t-46 168v119q0 8 5.5 13.5t13.5 5.5h649
q8 0 14 -5.5t6 -13.5v-119q0 -91 -46 -168t-125.5 -122t-172.5 -45v0zM104 407v-100q0 -123 89.5 -209.5t215.5 -86.5t215.5 86.5t89.5 209.5v100h-610zM267 468q-7 0 -12 4q-8 6 -18 16t-26 37t-16 52q1 41 40 71q31 23 30 47q-2 32 -50 65q-7 5 -8.5 12.5t2.5 14t12 8.5
t15 -2q3 -2 8 -5.5t16 -13.5t19.5 -20.5t16 -26t7.5 -30.5q2 -44 -44 -79q-25 -19 -25 -41q0 -21 15 -42t30 -33q6 -5 7 -13t-4 -14q-6 -7 -15 -7zM430 468q-6 0 -12 4q-7 6 -17.5 16t-26.5 37t-15 52q0 41 40 71q30 23 29 47q-1 31 -49 65q-7 5 -9 12.5t2.5 14t12.5 8.5
t14 -2q4 -2 8.5 -5.5t16 -13.5t20 -20.5t15.5 -26t8 -30.5q2 -44 -44 -79q-25 -19 -26 -41q0 -21 15.5 -42t30.5 -33q6 -5 7 -13t-4 -14q-6 -7 -16 -7zM594 468q-7 0 -12 4q-7 6 -17.5 16t-26.5 37t-16 52q1 41 41 71q30 23 29 47q-2 32 -50 65q-6 5 -8 12.5t2.5 14t12 8.5
t14.5 -2q3 -2 8 -5.5t16 -13.5t19.5 -20.5t16 -26t8.5 -30.5q2 -44 -45 -79q-25 -19 -25 -41q0 -21 15.5 -42t29.5 -33q7 -5 7.5 -13t-4.5 -14q-6 -7 -15 -7zM594 468z" />
    <glyph glyph-name="uniE640" unicode="&#xe640;" 
d="M518 590q76 0 141 -40q-7 -21 -20 -39q-55 35 -121 35q-67 0 -123 -36q-14 18 -21 39q66 41 144 41v0zM789 326v-7q0 -113 -79 -192q-29 -29 -64 -48q-15 17 -24 37q32 17 57 42q66 66 66 161v10q22 2 44 -3v0zM388 80q-35 19 -62 47q-80 79 -80 192v8q22 4 44 1v-9
q0 -95 67 -161q24 -25 55 -41q-10 -20 -24 -37v0zM909 30q-59 -65 -145 -78t-161 31h-1q-31 18 -56 44q-16 17 -28 37q-13 -20 -28 -37q-25 -26 -57 -44l-1 -1q-75 -43 -160 -30q-87 13 -146 77q-10 11 1 21q1 1 3 2l1 1q10 5 18 -3q43 -42 103 -50t113 22q65 38 84 110
q17 64 -11 124l29 16q21 -22 51 -22t50 22l30 -16q-29 -60 -12 -124q20 -72 84 -110h1q53 -30 112 -22q61 8 104 50q8 8 18 3l1 -1q13 -7 5 -20q0 -1 -2 -3v0v1zM423 281q-37 54 -101 72q-73 19 -137 -18q-53 -31 -76 -87q-24 -56 -8 -115q3 -11 -8 -17q-13 -8 -20 5
q-1 2 -2 3q-26 83 6 165q32 81 108 124q31 19 66 27q23 5 46 6q-11 21 -17 43q-11 34 -11 71q0 87 55 155q54 68 139 87q6 2 11 -1.5t7 -9.5v-3v-1q0 -12 -12 -15q-58 -16 -94.5 -64t-36.5 -109q0 -75 52 -128q47 -46 113 -52v-33q-23 -6 -38.5 -24.5t-15.5 -42.5
q0 -11 3 -21zM532 419q66 6 113 52q53 53 53 128q0 61 -37 109q-37 49 -96 65q-11 3 -11 14v1q0 6 4.5 10.5t10.5 4.5q2 0 5 -1q84 -19 138 -87t54 -155q0 -37 -10 -71q-7 -22 -17 -43q23 -1 45 -6q35 -8 67 -27q75 -43 107 -124q32 -82 6 -165q-2 -6 -7.5 -8.5t-10.5 -1.5
l-4 2q-10 6 -7 17q15 59 -8 115t-75 86q-1 1 -2 1q-65 37 -136 18q-64 -18 -102 -72l-29 17q3 10 3 21q0 24 -15 43t-39 24v33z" />
    <glyph glyph-name="uniE641" unicode="&#xe641;" 
d="M518 415q19 0 32 -13t13 -31.5t-13 -31.5t-31.5 -13t-31.5 13t-13 31.5t13 31.5t31 13zM631 601l38 68q-11 12 -11 29q0 18 13 31t31.5 13t31.5 -13t13 -31.5t-13 -31.5t-32 -13q-3 0 -7 1l-38 -67q19 -13 36 -28l139 135q-4 8 -4 18q0 19 13 32t31.5 13t31.5 -13
t13 -31.5t-13 -31.5t-32 -13q-10 0 -19 4l-140 -134q57 -66 62 -153h91q5 13 16.5 21.5t25.5 8.5q18 0 31 -13t13 -31.5t-13 -31.5t-31 -13q-14 0 -25.5 8t-16.5 21h-91q-5 -87 -63 -154l71 -69q14 9 30 9q25 0 42.5 -17.5t17.5 -42t-17.5 -42t-42 -17.5t-42 17.5
t-17.5 42.5q0 15 8 29l-71 69q-49 -45 -114 -60l2 -13q11 -4 17.5 -12.5t6.5 -19.5q0 -14 -9.5 -24t-23.5 -10t-24 10t-10 24q0 16 14 26l-2 14q-15 -2 -30 -2q-33 0 -65 9l-31 -95q17 -13 17 -35q0 -19 -13 -32t-31.5 -13t-31.5 13t-13 32q0 18 12.5 31t31.5 13l30 95
q-49 20 -87 58q-16 15 -29 34l-121 -76q2 -8 2 -17q0 -25 -17 -42.5t-42 -17.5t-42 17.5t-17 42t17 42t42 17.5q24 0 41 -17l122 76q-32 57 -32 122q0 16 2 32l-28 5q-13 -22 -39 -22q-19 0 -32 13t-13 31.5t13 31.5t32 13q16 0 28.5 -11t15.5 -27l29 -5q13 57 51 102
l-34 32q-6 -2 -12 -2q-14 0 -24 9.5t-10 23.5t10 23.5t24 9.5t23.5 -9.5t9.5 -23.5q0 -5 -1 -9l34 -32q49 47 114 64l-16 85q-24 1 -40.5 18.5t-16.5 41.5t17.5 41.5t42 17.5t42 -17.5t17.5 -41.5q0 -37 -33 -54l17 -85q17 2 34 2q60 0 113 -26v0zM518 474q43 0 73.5 -30.5
t30.5 -73.5t-30.5 -73.5t-73.5 -30.5t-73.5 30.5t-30.5 73.5t30.5 73.5t73.5 30.5z" />
    <glyph glyph-name="uniE642" unicode="&#xe642;" 
d="M391 815q-112 -29 -195.5 -111t-114.5 -193q118 60 225 83q38 124 85 221zM354 544q-17 -61 -18.5 -133t3 -111.5t11.5 -73.5q34 -7 73.5 -12.5t111.5 -4.5t133 17q7 34 12.5 73t4.5 110t-16 131q-60 17 -131 19t-110.5 -3t-73.5 -12zM637 -47q113 29 196 111.5
t113 194.5q-98 -46 -221 -82q-25 -108 -88 -224zM290 239q-28 156 2 293q-51 -13 -106.5 -33.5t-85.5 -34.5l-29 -14q-5 -32 -5.5 -63t4.5 -63q105 -54 220 -85zM369 605q152 27 285 -2q-41 130 -86 220q-35 6 -55 6l-55 -6q-47 -89 -89 -218zM655 164q-137 -29 -293 1
q13 -51 37 -108t35 -77.5t17 -31.5q36 -7 57 -7q9 0 23 1.5t23 3.5l9 1q6 10 18 31.5t36 78t38 107.5zM738 525q27 -133 -2 -285q23 8 78.5 28t99.5 37l43 17q4 30 4.5 59t-3.5 59l-44 18q-43 17 -98 38t-78 29zM80 263q29 -112 110.5 -195t193.5 -113q-60 115 -83 222
q-107 25 -221 86zM948 503q-29 113 -111.5 196.5t-194.5 114.5q46 -100 82 -225q124 -38 224 -86zM668 226q-61 -16 -133 -17t-111.5 4.5t-73.5 12.5q-7 34 -11.5 73.5t-3 111.5t18.5 133q34 7 73.5 12t110.5 3t131 -19q15 -60 16 -131t-4.5 -110t-12.5 -73z" />
    <glyph glyph-name="uniE643" unicode="&#xe643;" 
d="M674 726v36q0 30 -21 51t-51 21h-180q-30 0 -51 -21t-21 -51v-36h-180v-36h37l36 -684q0 -30 21 -51t51 -21h396q30 0 51 21t21 51l36 684h35v36h-180zM386 762q0 15 10.5 25.5t25.5 10.5h180q15 0 25.5 -10.5t10.5 -25.5v-36h-252v36zM747 8v-1v-1q0 -15 -10.5 -25.5
t-25.5 -10.5h-396q-15 0 -25.5 10.5t-10.5 25.5v1v1l-36 682h539zM530 618h-36v-576h36v576zM423 43l-37 575l-36 -2l37 -575zM674 617l-36 2l-36 -576l36 -2z" />
    <glyph glyph-name="uniE644" unicode="&#xe644;" horiz-adv-x="1025" 
d="M944.5 816.5q-17.5 17.5 -41.5 17.5t-42 -17l-172 -173v33h-627v-743h744v626h-36l174 174q18 17 18 41t-17.5 41.5zM767 -27h-666v665h581l-307 -306v-85h82l310 309v-583zM917 761l-476 -475h-27v29l475 474q6 6 14 6t13.5 -6t5.5 -14t-5 -14z" />
    <glyph glyph-name="uniE645" unicode="&#xe645;" 
d="M841 -66h-644q-30 0 -47 17t-17 47v772q0 29 17.5 46.5t46.5 17.5h193v-321l65 -129l64 129v321h322q26 0 45 -19.5t19 -44.5v-772q0 -33 -15.5 -48.5t-48.5 -15.5zM447 41q5 -8 20 -4t27 12.5t35.5 17.5t46.5 10h2q1 0 1 1q-6 0 -8 2l-91 90q-6 6 1 17q-6 -8 -7 -15
q-4 -22 -10.5 -42.5t-11.5 -32.5t-9 -23t-3 -18.5t7 -14.5zM498 204l-6 -5l-8 -8q11 9 19 2l91 -90q5 -6 0 -16q7 9 8 10l213 199q-10 -4 -15 1l-90 90q-6 5 0 16zM816.5 400q-18.5 19 -44.5 22t-47 -10q6 0 8 -3l91 -89q3 -4 3 -10q13 21 10.5 46t-21 44z" />
    <glyph glyph-name="uniE646" unicode="&#xe646;" 
d="M941 301q-22 3 -34 5q-5 1 -16 4q-9 3 -34 9q-1 0 -1.5 0.5t-1.5 0.5q-2 1 -11 4.5t-14 5.5q-11 4 -24 9l-2 1q-17 9 -18 10q-20 13 -26 18q-4 3 -20 22q-5 6 -1 14l12 18q11 15 18 21t32 26q6 4 13 8q5 3 29 16q9 5 14 8q16 7 21 10q4 1 12.5 4.5t10.5 4.5q3 1 12 4.5
t14 5.5q8 3 6 10q-1 2 -7 17q-8 17 -10 21q-3 7 -5 10q-2 6 -5 8q-3 3 -8 1q-10 -5 -23 -11q-4 -2 -11.5 -5t-11.5 -5q-5 -2 -11 -5q-12 -6 -17 -9q-2 -1 -17 -10q-15 -8 -16 -9q-18 -12 -26 -19q-16 -13 -27 -25q-15 -14 -23 -32q-11 -20 -11 -31q-1 -20 0 -35
q4 -46 13 -62q5 -10 11 -17q12 -16 28 -27q13 -9 31 -19q3 -2 16 -8q18 -9 22 -10q2 -1 29 -9q0 -1 1 -1h2q11 -4 18 -5q4 -2 9 -3l18 -4q1 0 5 -1t6 -2q1 0 15 -4l6 5q2 3 4 10t5.5 19.5t4.5 17.5q1 2 2 6q5 12 -8 14zM187 199q3 1 6 3t7 4l6 3l17 9q8 5 34 24q20 14 34 32
q15 18 18 26q1 2 4 9t5 11q2 5 3 13v20q1 19 -2 39q-4 24 -11 36q-7 15 -17 25q-12 12 -23 20q-8 6 -30 19q-5 3 -17 9q-17 8 -23 10q-7 3 -29 9q-27 8 -37 11l-10 2q-5 1 -11.5 2.5t-9.5 2.5q-9 2 -12 -6l-2 -6q-5 -15 -5 -16q-2 -6 -9 -33v-1q0 -7 6 -8q4 -1 12 -2t11 -2
q8 -1 16 -3q8 -1 16.5 -3.5t32.5 -8.5l1 -1h1t11 -4l15 -6q7 -2 24 -9l1 -1h1q16 -9 17 -10q21 -13 27 -18q3 -3 20 -22q4 -5 2 -10q-5 -10 -9 -17q-2 -2 -11 -13q-10 -13 -36 -33q-6 -5 -28 -19q-6 -4 -16 -9q-4 -2 -11 -5t-8 -4q-20 -10 -21 -10q-4 -2 -12 -5t-11 -4
q-5 -2 -14.5 -6t-13.5 -6q-7 -2 -4.5 -8.5t7.5 -18.5q5 -10 10 -22l3 -6l2 -5q5 -9 13 -5q5 3 23 10q4 2 11.5 5t11.5 5zM137 611q1 0 3 -2q30 -23 32 -24q11 -8 23 -16q10 -6 31 -18q5 -3 19 -11q1 0 5 -2q2 -1 7 -2q26 -10 31 -12q2 0 10 -2q11 -3 12 -3q7 -1 22 -2
q34 -1 62 19q2 2 6.5 5t6.5 4q19 14 21 16q20 16 29 38q7 16 10 36q1 3 2 37q-3 37 -3 39q-1 5 -2.5 14.5t-3 17t-4.5 13.5q0 1 -0.5 3t-0.5 3q-3 11 -9 32v2q-1 1 -2.5 5t-1.5 7q-4 11 -6 13q-2 6 -9 4q-4 -2 -18 -5q-2 -1 -6.5 -2t-6.5 -2l-6 -1q-4 -1 -6 -2q-1 0 -4 -0.5
t-4 -1.5q-13 -4 -6 -16q3 -4 4 -8q0 -2 9 -29q0 -1 1 -2q3 -10 4 -16q1 -2 2 -7q4 -14 5 -16q1 -6 3 -15q3 -15 3 -19q2 -12 3 -22q1 -24 1 -29q-3 -34 -10 -51q-5 -9 -13 -10q-26 -2 -62 9q-5 2 -16 7q-10 4 -17 8q-4 2 -18 10q-23 14 -27 16q-14 10 -32 24q-8 6 -32 26
q-6 5 -11 -1q-3 -3 -8.5 -11t-8.5 -12q-10 -13 -16 -23q-6 -8 3 -13zM887 157q-1 0 -3 2q-31 23 -32 24q-11 8 -23 15.5t-32 19.5q-3 2 -15 7q-19 10 -22 11q-5 1 -15 4t-14 5q-14 5 -44 6q-16 -1 -18 -2q-15 -3 -25 -8q-4 -2 -24 -16q-18 -13 -28 -21q-19 -14 -28 -41
q-8 -23 -9 -43q-2 -41 8 -96q1 -1 1.5 -3t0.5 -3q6 -19 10 -34v-1v-2q7 -20 10 -30q0 -1 2 -4q3 -6 10 -3q4 1 17 4q2 1 6.5 2t6.5 2l14 3q8 2 9 3q10 4 4 14q-2 4 -4 10q-6 17 -9 27q-3 11 -12 41q-1 4 -2 10q-3 19 -4 25q-1 3 -1.5 9t-1.5 9q-7 48 10 86q3 7 10 8h5
q32 0 46 -6q1 0 3 -0.5t3 -0.5q18 -7 25 -9l14 -7q7 -4 19 -11q22 -13 26 -16q17 -11 33 -24q9 -7 31 -26q7 -5 11 0q5 7 8 10q4 5 12.5 17.5t13.5 18.5q7 10 -3 14zM509 73q1 9 -0.5 18t-4 20t-3.5 16q0 1 -1 4q-9 22 -11 25q-5 11 -9 17q-14 18 -28 26q-7 4 -14 7
q-16 8 -21 10q-12 5 -25 10q-9 3 -13 4q-33 1 -46 -5q-1 0 -3 -1h-1q-9 -3 -24 -9q-1 0 -1 -1h-1q-16 -9 -17 -10q-20 -12 -25 -17q-13 -9 -29 -23q-14 -12 -25 -24q-7 -7 -20 -21t-15 -16q-4 -5 -1 -10q2 -1 4 -3q3 -4 16 -17.5t20 -20.5t13 1q1 1 5 6.5t7 8.5q30 32 44 46
q17 16 32 28q9 7 34 23q17 10 27 12l4 2q8 4 28 5q5 0 8 -4q5 -5 9 -13q4 -10 9 -22q1 -4 4 -15q1 -2 2 -10q3 -18 4 -20q3 -43 -1 -84q-1 -12 -5 -42q-2 -11 -5 -19q-3 -12 9 -13l30 -3q3 -1 11.5 -2t12.5 -1q8 -1 9 6q5 32 5 38q1 5 4 55h-2v38zM523 640q0 -1 1 -4
q9 -22 11 -25q5 -11 9 -16q14 -18 27 -25q5 -3 14 -7q17 -9 21 -11q14 -6 26 -10q8 -3 15 -4h10h10q7 0 20 4t16 4l2 2h1q20 9 20 10q13 6 18 9q4 3 11.5 8.5t10.5 7.5q18 12 44 38q5 5 41 44q5 5 1 11l-11 11l-28 28q-8 9 -15 -1q-6 -9 -10 -13q-32 -34 -45 -47
q-16 -16 -31 -27q-8 -7 -35 -23q-15 -11 -26 -13q-1 0 -4 -1q-10 -6 -31 -5q-4 0 -5 2q-12 18 -14 23q-9 23 -9 32v2l-1 2q-4 20 -4 22q-1 12 -1 28q0 58 5 81q1 5 2 14q1 18 4 25q4 9 -6 10q-3 0 -7 0.5t-6 0.5q-8 1 -23.5 3t-18.5 2q-9 1 -10 -6q-5 -29 -6 -36
q0 -5 -3 -57q2 -42 2 -46q0 -10 3.5 -26.5t4.5 -20.5zM609 383q1 40 -28 69.5t-70 29.5q-40 -1 -68.5 -29.5t-27.5 -68.5q-1 -40 27.5 -68.5t69.5 -28.5q40 0 68.5 28t28.5 68z" />
    <glyph glyph-name="uniE647" unicode="&#xe647;" 
d="M512 769q104 0 192 -51t139 -139.5t51 -192t-51 -191.5t-139 -139.5t-192 -51.5t-192 51.5t-139 139.5t-51 191.5t51 192t139 139.5t192 51zM512 814q-116 0 -214.5 -57t-155.5 -155.5t-57 -214.5t57 -214.5t155.5 -156t214.5 -57.5t214.5 57.5t155.5 156t57 214.5
t-57 214.5t-155.5 155.5t-214.5 57zM733 564q-48 49 -117 49t-118 -49l-116 -116q-5 -5 -5 -13t5.5 -14t13.5 -6t14 6l116 116q37 37 90 37t90.5 -37t37.5 -90t-38 -91l-194 -194l-194 194q-38 38 -38 91t37.5 90t90.5 37q9 0 18 -1h3q7 0 12.5 4.5t6.5 11.5q1 8 -4 14.5
t-13 7.5q-11 2 -23 2q-26 0 -51 -8q-38 -13 -66 -41q-49 -48 -49 -117t49 -118l207 -208q6 -5 14 -5t14 5l207 208q49 49 49 118t-49 117v0zM733 564z" />
    <glyph glyph-name="uniE648" unicode="&#xe648;" 
d="M962 145q0 -87 -62 -149t-149 -62h-478q-87 0 -149 62t-62 149v478q0 87 62 149t149 62h478q87 0 149 -62t62 -149v-478zM511 668q-117 0 -200 -83.5t-83 -200.5t83 -200.5t200 -83.5q19 0 33 14t14 33t-12 31q-12 16 -12 31q0 20 14 33.5t33 13.5h57q65 0 111.5 46.5
t46.5 112.5q-2 105 -85.5 179t-199.5 74v0zM339 384q-20 0 -33.5 14t-13.5 33.5t13.5 33.5t33 14t33.5 -14t14 -33.5t-14 -33.5t-33 -14v0zM433 509q-19 0 -33 14t-14 33.5t14 33.5t33.5 14t33 -14t13.5 -33.5t-13.5 -33.5t-33.5 -14v0zM589 509q-20 0 -34 14t-14 33.5
t14 33.5t33.5 14t33.5 -14t14 -33.5t-14 -33.5t-33 -14v0zM683 384q-20 0 -33.5 14t-13.5 33.5t13.5 33.5t33 14t33.5 -14t14 -33.5t-14 -33.5t-33 -14v0zM683 384z" />
    <glyph glyph-name="uniE649" unicode="&#xe649;" 
d="M942 625q-1 11 -9.5 18.5t-19.5 7.5h-91v63q0 41 -29 70.5t-71 29.5h-412q-42 0 -71 -29.5t-29 -70.5v-63h-99q-11 0 -19.5 -7.5t-9.5 -18.5q-6 -67 9 -146q13 -70 42 -123q38 -68 99 -103q3 -2 7 -3q24 -42 66 -74q79 -63 183 -71v-93h-162q-12 0 -20 -8.5t-8 -20.5
t8 -20.5t20 -8.5h375q12 0 20.5 8.5t8.5 20.5t-8.5 20.5t-20.5 8.5h-155v94q100 11 179 79q35 29 59 65q4 1 8 3q61 35 99 103q29 53 42 123q15 78 9 146zM148 488q-10 51 -9 106h71v-241v-7q-45 52 -62 142zM688 229q-78 -67 -174 -67q-98 0 -174 59q-73 58 -73 132v361
q0 17 12.5 29.5t30.5 12.5h412q18 0 30.5 -12.5t12.5 -29.5v-344q0 -77 -77 -141zM822 356v14v0v224h63q1 -152 -63 -238zM688 570l-101 14l-46 92q-6 14 -21 14t-22 -14l-45 -92l-102 -14q-14 -3 -19 -17t6 -24l74 -72l-18 -101q-2 -15 10 -23.5t25 -1.5l91 48l91 -48
q5 -3 11 -3q7 0 14 5q12 8 9 23l-17 101l73 72q11 10 6.5 24t-19.5 17zM585 483q-9 -9 -6 -22l11 -65l-59 31q-5 3 -11 3t-11 -3l-59 -31l11 65q2 13 -7 22l-48 46l66 10q13 2 18 13l30 59l29 -59q6 -11 18 -13l66 -10z" />
    <glyph glyph-name="uniE64A" unicode="&#xe64a;" 
d="M975 506l-299 60l-149 279l-148 -279l-299 -60l208 -232l-38 -317l277 136l278 -136l-38 317zM527 138v620l122 -229l248 -49l-173 -193l31 -260z" />
    <glyph glyph-name="uniE64B" unicode="&#xe64b;" 
d="M603 384l338 338q19 19 19 45.5t-19 45.5t-46 19t-45 -19l-338 -338l-338 338q-19 19 -45.5 19t-45.5 -19t-19 -45.5t19 -45.5l338 -338l-338 -337q-19 -19 -19 -46t19 -45.5t45.5 -18.5t45.5 18l338 338l338 -338q18 -18 45 -18t46 18.5t19 45.5t-19 46z" />
    <glyph glyph-name="uniE64C" unicode="&#xe64c;" 
d="M876 523q-32 75 -90.5 133.5t-134.5 90.5q-78 33 -164 33t-164 -33q-76 -32 -134.5 -90.5t-90.5 -133.5q-33 -79 -33 -165t33 -164q32 -76 90.5 -134.5t134.5 -90.5q78 -33 164 -33t164 33q76 32 134.5 90.5t90.5 134.5q33 78 33 164t-33 165zM487 -6q-99 0 -182.5 49
t-132.5 133t-49 182.5t49 182.5t132.5 132.5t182.5 48.5t182.5 -48.5t132.5 -132.5t49 -182.5t-49 -182.5t-132.5 -133t-182.5 -49zM619 535l-136 -135l-135 135q-9 9 -21.5 9t-21.5 -9q-8 -9 -8 -21.5t8 -20.5l136 -136l-135 -135q-9 -9 -9 -21.5t9 -21t21 -8.5t21 8
l135 136l136 -135q9 -9 21.5 -9t20.5 9q9 8 9 20.5t-9 21.5l-135 135l135 136q9 9 9 21t-9 21t-21.5 9t-20.5 -9z" />
    <glyph glyph-name="uniE64D" unicode="&#xe64d;" horiz-adv-x="1098" 
d="M1027 318q0 -15 -16 -33l-168 -199q-22 -25 -61 -43t-72 -18h-546q-17 0 -30.5 6.5t-13.5 21.5q0 16 16 33l168 199q22 26 61 44t72 18h546q17 0 30.5 -7t13.5 -22zM855 491v-80h-418q-47 0 -99 -24t-82 -60l-172 -202q0 2 -0.5 6.5t-0.5 6.5v482q0 46 33.5 79t79.5 33
h161q46 0 79 -33t33 -79v-16h273q46 0 79.5 -33.5t33.5 -79.5z" />
    <glyph glyph-name="uniE64E" unicode="&#xe64e;" 
d="M711 309q-14 3 -18.5 8.5t-1.5 10.5l3 4q2 2 4 6t5 15t4 21.5t-3.5 23.5t-15.5 24q-13 13 -34 17t-42.5 1t-40.5 -8.5t-31 -10.5l-12 -5q-9 -3 -15.5 -4t-10 0.5t-5 3t-1.5 6.5t1 8.5t2.5 11.5t2.5 13q0 15 -2 27t-10 25t-21.5 20t-38 6.5t-57.5 -11.5q-32 -11 -66 -33.5
t-59.5 -46.5t-46.5 -46.5t-31.5 -36.5t-10.5 -15q-31 -41 -46 -81.5t-15 -61.5l1 -20q5 -45 27 -81t53 -58t72.5 -37.5t80 -23t80.5 -10.5q71 -6 146 10.5t139.5 57.5t91.5 97q16 34 16 63t-10 47.5t-26.5 32.5t-31 20.5t-26.5 9.5zM423 15q-102 -5 -173.5 39.5t-71.5 112.5
q0 67 71 116t174 53q103 5 174 -34t71 -106q0 -68 -72.5 -122t-172.5 -59zM396 277q-121 -14 -121 -144v-4q0 -3 2 -11t5.5 -15.5t11 -16t18.5 -14.5q61 -30 115.5 -18t87.5 55q16 20 17.5 50.5t-10 59t-45 46t-81.5 12.5zM361 97.5q-19 -2.5 -32.5 7.5t-13.5 26t12.5 30
t31.5 16q21 2 34.5 -8.5t13.5 -27.5q0 -16 -13.5 -28.5t-32.5 -15zM441.5 166q-6.5 -5 -13.5 -4.5t-10 6.5q-4 6 -2.5 14t7.5 12q8 6 15 5t10.5 -7t1.5 -13.5t-8.5 -12.5zM777 364q9 0 15 5.5t7 13.5q1 1 1 2q12 108 -76 124q-25 4 -47 0q-9 0 -15.5 -6.5t-6.5 -16t6.5 -16
t15.5 -6.5q29 6 46.5 0.5t24.5 -18.5t8.5 -26t-0.5 -24l-1 -10q0 -9 6.5 -15.5t15.5 -6.5zM761 625q-47 11 -111 -1h-2l-1 -1l-1 -1q-11 -3 -17.5 -11.5t-6.5 -19.5q0 -14 9.5 -23.5t23.5 -9.5q17 3 29 7q5 0 16.5 1.5t31 -3.5t39 -12.5t40 -24.5t34.5 -40q25 -57 10 -108
q-6 -16 -6 -32q0 -13 9 -21t23 -8t21.5 5t9.5 23q17 52 13 95t-18 74.5t-40 54.5t-52 36.5t-54 19.5z" />
    <glyph glyph-name="uniE64F" unicode="&#xe64f;" 
d="M432 504h160v120h120l-200 200l-200 -200h120v-120zM392 464h-120v120l-200 -200l200 -200v120h120v160zM952 384l-200 200v-120h-120v-160h120v-120zM592 264h-160v-120h-120l200 -200l200 200h-120v120z" />
    <glyph glyph-name="uniE650" unicode="&#xe650;" 
d="M512 834q-186 0 -318 -132t-132 -318t132 -318t318 -132t318 132t132 318t-132 318t-318 132zM705 227l-36 -36l-157 158l-157 -158l-36 36l158 157l-158 157l36 36l157 -158l157 158l36 -36l-158 -157z" />
    <glyph glyph-name="uniE651" unicode="&#xe651;" 
d="M512 51l-422 666h844z" />
    <glyph glyph-name="uniE652" unicode="&#xe652;" 
d="M572 720q-125 -11 -214 -104h44q65 56 148 70q76 14 149 -8.5t124.5 -70t79.5 -118t21 -147.5q-10 -112 -91 -193t-192 -92q-136 -13 -239 74h-44q55 -56 129 -84t157 -20q122 12 210.5 100.5t100.5 210.5q8 81 -20.5 155.5t-81 127t-127 80t-154.5 20.5v-1zM494 510
l-23 -23l98 -97h-492v-32h492l-98 -97l23 -23l135 136z" />
    <glyph glyph-name="uniE653" unicode="&#xe653;" 
d="M512 797q112 0 207.5 -55t150.5 -150.5t55 -207.5t-55 -207.5t-150.5 -150.5t-207.5 -55t-207.5 55t-150.5 150.5t-55 207.5t55 207.5t150.5 150.5t207.5 55zM641 534q0 -10 7 -18q56 -56 56 -135.5t-56 -136t-136 -56.5t-136 56.5t-56 136t56 135.5q7 8 7 18t-7 17
t-17 7t-18 -7q-70 -71 -70 -170.5t70.5 -170.5t170.5 -71t170.5 71t70.5 170.5t-70 170.5q-8 7 -18 7t-17 -7t-7 -17zM495 622q-8 -8 -8 -18v-223q0 -11 8 -18q7 -7 17 -7t17 7q8 7 8 18v223q0 10 -7.5 17.5t-17.5 7.5t-17 -7z" />
    <glyph glyph-name="uniE654" unicode="&#xe654;" 
d="M892 596q10 10 25 10t25 -10t10 -24.5t-10 -25.5l-405 -400q-10 -11 -25 -11t-25 11l-405 400q-10 11 -10 25.5t10 24.5t25 10t25 -10l380 -366z" />
    <glyph glyph-name="uniE655" unicode="&#xe655;" 
d="M849 496h-510v52q0 72 50.5 123t122.5 51q46 0 85.5 -23t62.5 -62v1h1q17 -25 45 -25q24 0 40.5 16.5t16.5 40.5q0 11 -5 21v1q-4 8 -11 15q-39 59 -101 93t-134 34q-118 0 -202 -83.5t-84 -202.5v-51h-52q-23 0 -39.5 -16.5t-16.5 -40.5v-450q0 -23 16.5 -39.5
t39.5 -16.5h675q24 0 40.5 16.5t16.5 39.5v450q0 24 -16.5 40.5t-40.5 15.5zM512 103q-47 0 -80 33t-33 79.5t33 79.5t80 33t79.5 -33t32.5 -79.5t-32.5 -79.5t-79.5 -33z" />
    <glyph glyph-name="uniE656" unicode="&#xe656;" 
d="M513 115l-337 323l-83 -83l426 -399l406 399l-82 83zM925 733l-82 76l-330 -323l-337 323l-83 -76l426 -405z" />
    <glyph glyph-name="uniE657" unicode="&#xe657;" 
d="M62 834h372v-59h-372v59zM121 834v-372h-59v372h59zM434 834v-372h-59v372h59zM62 521h372v-59h-372v59zM590 834h372v-59h-372v59zM649 834v-372h-59v372h59zM962 834v-372h-59v372h59zM590 521h372v-59h-372v59zM62 306h372v-59h-372v59zM121 306v-372h-59v372h59z
M434 306v-372h-59v372h59zM62 -7h372v-59h-372v59zM590 306h372v-59h-372v59zM649 306v-372h-59v372h59zM962 306v-372h-59v372h59zM590 -7h372v-59h-372v59z" />
    <glyph glyph-name="uniE658" unicode="&#xe658;" 
d="M669 443q14 0 30 -2q-20 95 -110.5 157.5t-206.5 62.5q-130 0 -222 -77.5t-92 -189.5q0 -124 126 -212l-31 -94l109 55q80 -16 110 -16q14 0 30 1q-10 34 -10 66q0 103 77.5 176t189.5 73zM500 528q18 0 28.5 -11t10.5 -28.5t-10.5 -28.5t-28.5 -11t-32.5 11.5
t-14.5 28.5t14.5 28t32.5 11zM280 449q-18 0 -32.5 11.5t-14.5 28.5t14.5 28t32.5 11t29 -11t11 -28.5t-11 -28.5t-29 -11zM956 198q0 93 -80 160.5t-187 67.5q-112 0 -189.5 -67t-77.5 -161.5t77.5 -161t189.5 -66.5q31 0 94 16l86 -47l-23 78q110 83 110 181zM602 237
q-11 0 -21 10t-10 21.5t10 21.5t21 10q17 0 28.5 -9.5t11.5 -22t-11.5 -22t-28.5 -9.5zM775 237q-12 0 -21.5 10t-9.5 21.5t9.5 21.5t21.5 10q17 0 28 -9.5t11 -22t-11 -22t-28 -9.5z" />
    <glyph glyph-name="uniE659" unicode="&#xe659;" 
d="M928 550q-2 5 -5 9q-7 7 -17 7t-17 -7q-12 -12 -6 -26q45 -107 21.5 -226.5t-109.5 -205.5q-71 -71 -165 -99.5t-190 -11t-173 77.5l151 87q9 5 11.5 15t-2.5 18.5t-14.5 11t-18.5 -2.5l-180 -104q-9 -5 -11.5 -14.5t2.5 -18.5q3 -4 7 -7v-1q86 -79 198.5 -105t223.5 5.5
t195 114.5q96 97 122.5 230.5t-23.5 252.5zM141 235q-45 107 -21.5 226.5t109.5 205.5q71 71 165 99.5t190 11t173 -77.5l-151 -87q-9 -5 -11.5 -15t2.5 -18.5t14.5 -11t18.5 2.5l180 104q9 5 11.5 14.5t-2.5 18.5q-3 4 -7 7v1q-86 79 -198.5 105t-223.5 -5.5t-195 -114.5
q-96 -97 -122.5 -230.5t23.5 -252.5q2 -5 5 -9q7 -7 17 -7t17 7q12 12 6 26z" />
    <glyph glyph-name="uniE65A" unicode="&#xe65a;" 
d="M512 834q-91 0 -174.5 -35.5t-144 -96t-96 -144t-35.5 -174.5t35.5 -174.5t96 -144t144 -96t174.5 -35.5t174.5 35.5t144 96t96 144t35.5 174.5t-35.5 174.5t-96 144t-144 96t-174.5 35.5zM512 -2q-105 0 -193.5 52t-140.5 140.5t-52 193.5t52 193.5t140.5 140.5
t193.5 52t193.5 -52t140.5 -140.5t52 -193.5t-52 -193.5t-140.5 -140.5t-193.5 -52zM642 441q13 -16 10 -26.5t-19 -10.5q-5 0 -11 -0.5t-13 -0.5h-13q-7 -1 -12 -1q-12 0 -14.5 -7t-2.5 -19v-36q0 -22 0.5 -46t1 -46t0.5 -37q0 -6 -1 -12.5t-4.5 -12t-9.5 -9t-16 -3.5h-23
q-11 0 -25 -1q-20 0 -26.5 9.5t-6.5 29.5v30q-1 19 -1 43q0 22 -0.5 44t-0.5 34q0 18 -3.5 28.5t-15.5 10.5h-22h-21q-16 0 -20.5 9t6.5 23t25.5 33t29.5 39.5t30 39.5q14 20 26 35q10 13 20 13.5t20 -11.5q11 -14 25 -32l30 -38l30 -38q15 -19 27 -34z" />
    <glyph glyph-name="uniE65B" unicode="&#xe65b;" horiz-adv-x="1028" 
d="M859 806h-694h694zM151 615l361 1l363 -3q40 0 48 -6q11 -9 11 -24t-11 -26l-384 -421q-11 -11 -27 -10q-16 -1 -27 10l-384 421q-11 10 -11 25.5t11 24.5q11 8 50 8zM151 615z" />
    <glyph glyph-name="uniE65C" unicode="&#xe65c;" 
d="M104 808q-6 0 -10.5 -4.5t-4.5 -10.5v-303q0 -6 4.5 -10t10.5 -4h303q6 0 10.5 4t4.5 10v303q0 6 -4.5 10.5t-10.5 4.5h-303zM621 808q-6 0 -10.5 -4.5t-4.5 -10.5v-303q0 -6 4.5 -10t10.5 -4h303q6 0 10 4t4 10v303q0 6 -4 10.5t-10 4.5h-303zM621 844h303
q21 0 35.5 -15t14.5 -36v-303q0 -21 -14.5 -36t-35.5 -15h-303q-21 0 -36 15t-15 36v303q0 21 15 36t36 15v0zM104 291q-6 0 -10.5 -4t-4.5 -11v-302q0 -6 4.5 -10.5t10.5 -4.5h303q6 0 10.5 4.5t4.5 10.5v302q0 7 -4.5 11t-10.5 4h-303zM104 327h303q21 0 36 -15t15 -36
v-302q0 -21 -15 -36t-36 -15h-303q-21 0 -36 15t-15 36v302q0 21 15 36t36 15v0zM621 327h303q21 0 35.5 -15t14.5 -36v-302q0 -21 -14.5 -36t-35.5 -15h-303q-21 0 -36 15t-15 36v302q0 21 15 36t36 15v0zM104 844h303q21 0 36 -15t15 -36v-303q0 -21 -15 -36t-36 -15h-303
q-21 0 -36 15t-15 36v303q0 21 15 36t36 15v0zM104 844z" />
    <glyph glyph-name="uniE65D" unicode="&#xe65d;" 
d="M932 624q0 -25 -17.5 -42.5t-42.5 -17.5h-720q-25 0 -42.5 17.5t-17.5 42.5t17.5 42.5t42.5 17.5h720q25 0 42.5 -17.5t17.5 -42.5zM692 384q0 -25 -17.5 -42.5t-42.5 -17.5h-480q-25 0 -42.5 17.5t-17.5 42.5t17.5 42.5t42.5 17.5h480q25 0 42.5 -17.5t17.5 -42.5z
M512 144q0 -25 -17.5 -42.5t-42.5 -17.5h-300q-25 0 -42.5 17.5t-17.5 42.5t17.5 42.5t42.5 17.5h300q25 0 42.5 -17.5t17.5 -42.5z" />
    <glyph glyph-name="uniE65E" unicode="&#xe65e;" 
d="M400 564l289 -183l-289 -180v363zM512 800q112 0 208 -55.5t152 -151.5t56 -209t-56 -209t-152 -151.5t-208 -55.5t-208 56t-152 152t-56 208t56 208t152 152t208 56zM512 834q-122 0 -225.5 -60.5t-164 -164t-60.5 -225.5t60.5 -225.5t164 -164t225.5 -60.5t225.5 60.5
t164 164t60.5 225.5t-60.5 225.5t-164 164t-225.5 60.5z" />
    <glyph glyph-name="uniE65F" unicode="&#xe65f;" 
d="M498 371q27 41 35 86t-2 82t-34.5 66.5t-59.5 44.5q3 -50 -10 -92.5t-32.5 -72t-40 -56t-35 -59.5t-14.5 -69q0 -82 60.5 -139.5t146.5 -57.5t146.5 58t60.5 139q2 21 -0.5 40.5t-7 35.5t-11 32t-13.5 27t-15 22t-13 17t-11 11l-5 6l-3 -12q-6 -22 -9.5 -32.5t-11 -26.5
t-16.5 -23.5t-23.5 -15.5t-34.5 -10.5t-47 -0.5zM512 806q-115 0 -212 -56.5t-153.5 -153.5t-56.5 -212t56.5 -212t153.5 -153.5t212 -56.5t212 56.5t153.5 153.5t56.5 212t-56.5 212t-153.5 153.5t-212 56.5zM512 71q-99 0 -169 70t-70 169q0 37 13.5 70t32 55t38 50
t32.5 54.5t15 67.5t-16 90q59 -13 99 -41t58.5 -60.5t24.5 -69.5t0.5 -68.5t-17.5 -57.5q69 47 50 165q43 -24 74.5 -58.5t46.5 -71t21 -67t6 -58.5q0 -99 -70 -169t-169 -70z" />
    <glyph glyph-name="uniE660" unicode="&#xe660;" 
d="M570 297q26 9 43.5 19.5t22.5 16.5l5 6q48 -59 114 -59q61 0 103 43.5t42 105.5q0 78 -77 121q15 46 15 75q0 42 -32 72.5t-75 30.5q-1 0 -5.5 -0.5t-7.5 -0.5t-6.5 2.5t-5.5 7.5q-9 38 -40 59.5t-73 21.5q-63 0 -92 -36q0 -2 -1 -3.5t-3.5 -4t-5.5 1.5q-38 38 -92 38
q-48 0 -84.5 -31.5t-43.5 -78.5q-5 0 -1 -3t15 -3q-67 0 -114 -47t-47 -113q0 -71 52 -118q1 -1 3 -2t5 -7.5t1 -14.5q-2 -12 -2 -24q0 -49 35 -84.5t84 -35.5q54 0 93 48q2 -2 6 -4.5t18.5 -7t31.5 -3.5v-15v-290q0 -12 8.5 -20.5t21.5 -8.5h59q13 0 21.5 8.5t8.5 20.5v317
z" />
    <glyph glyph-name="uniE661" unicode="&#xe661;" 
d="M860 42q60 105 65 206q-37 -36 -56.5 -55t-40 -35.5t-30.5 -21t-23.5 -6t-23 3t-24.5 13.5q34 10 42 23q72 48 112.5 109.5t43.5 155.5q-10 -10 -30 -31t-31 -31.5t-31.5 -20.5t-44.5 -12q39 52 57.5 115.5t29.5 150.5v42v46q0 18 -2 44t-7 50q-7 -15 -17 -40.5
t-19.5 -44.5t-22.5 -33q-18 -32 -22 -38q-41 -61 -101.5 -102.5t-152.5 -87.5q-129 -39 -152 -46q-1 0 -6 -2t-7.5 -2.5t-7 1.5t-8.5 8q-4 7 2 13l7 7q7 23 24 39t45 32t39 25q7 4 24.5 12t29 16.5t18.5 20.5q-69 -3 -101 -19q-98 -17 -198 -105q-6 1 -9 2t-6.5 -2t-4.5 -4
t-3.5 -5t-2.5 -5q-50 -64 -78 -128t-28 -140q0 -32 -1 -58.5t5.5 -59.5t22.5 -63q10 99 52.5 166t127.5 102q-4 -9 -11 -20t-11 -18.5t-9 -20t-4.5 -23.5t2.5 -29q48 97 116 134q14 -13 2 -30.5t-6 -32.5q128 88 220 116q3 -2 7 -7t6 -7q-44 -35 -73.5 -65.5t-56.5 -72.5
t-37 -95.5t-3 -117.5q61 44 87 121q8 -6 11 -12t3 -13.5t2 -11.5q-11 -65 -32 -112t-62 -79q-19 -14 -60.5 -29.5t-57.5 -25.5q194 -34 363 85q85 50 149 161z" />
    <glyph glyph-name="uniE662" unicode="&#xe662;" 
d="M1002 -120q-28 12 -61 51.5t-50 50.5q-55 36 -3 83q21 19 29 33q8 13 11.5 21t2 19.5t-12.5 18.5q-17 11 -33.5 5t-23.5 -29q-24 -78 -93 -15q-23 21 -186 188q298 292 376 367q11 10 19.5 26.5t12.5 33t7 31.5t3 24l1 9q-10 -1 -25.5 -3t-49 -13.5t-50.5 -28.5
q-105 -110 -364 -375q-263 270 -364 375q-17 17 -49.5 28.5t-51 14t-24.5 2.5q1 -10 2.5 -25.5t12.5 -49t27 -49.5q72 -68 377 -367q-162 -166 -186 -188q-68 -63 -93 15q-7 23 -23.5 29t-33.5 -5q-11 -7 -12.5 -18.5t2 -19.5t11.5 -21q8 -14 29 -33q52 -47 -3 -83
q-17 -12 -50 -51t-61 -51q-13 -5 -14 -17t6.5 -23.5t17.5 -19.5l5 -4q5 -3 6.5 -4t6.5 -4t7 -3.5t6.5 -1.5t7.5 0.5t6.5 3.5t6.5 6.5t6 10.5q13 29 54.5 64.5t53.5 52.5q23 32 58 2q1 -1 17.5 -16.5t26.5 -22.5q46 -32 64 0q10 17 2 32.5t-31 22.5q-21 8 -31 18t-9 22
t7 23.5t19 26.5q5 7 9 11q23 22 182 177q159 -156 182 -177q4 -4 9 -11q13 -14 19 -26t7 -24t-9 -22t-31 -17q-23 -8 -31 -23.5t2 -32.5q18 -32 64 0q8 5 15 11.5t15.5 15t13.5 12.5q34 30 58 -2q12 -17 53.5 -52.5t54.5 -63.5q3 -7 6 -11.5t6.5 -6.5t6.5 -3.5t7.5 -0.5
t6.5 1.5t7 3.5t6.5 4t6.5 4.5t5 4.5q10 7 17.5 18.5t6.5 23.5t-14 17z" />
    <glyph glyph-name="uniE663" unicode="&#xe663;" 
d="M512 724q-116 0 -215 -57.5t-156.5 -156t-57.5 -214.5q0 -26 4 -54q12 -67 39 -123q27 -49 64.5 -86.5t78 -59t79 -32.5t74.5 -13q61 -2 115 14.5t88.5 41.5t60.5 51.5t37 43.5t11 19q8 -40 -0.5 -76.5t-26.5 -60.5t-41.5 -44t-40 -29t-25.5 -12q147 31 244 148.5
t97 270.5q0 117 -57.5 215.5t-156.5 156t-215 57.5zM733 121q-17 51 -45 88t-55 53t-51.5 25t-39.5 9l-15 1q-34 0 -60 10.5t-39.5 25.5t-22 30t-10.5 26l-3 11q-7 45 5.5 77.5t30.5 47t45.5 22.5t37 8.5t17.5 0.5q63 -5 111.5 -26.5t76.5 -54.5t43.5 -70t18.5 -78
q4 -46 -7 -97t-24 -80z" />
    <glyph glyph-name="uniE664" unicode="&#xe664;" 
d="M830 407q0 2 -0.5 5.5t-0.5 4.5q-1 10 -3 21q-1 7 -2 10q-2 10 -5 21q-1 1 -1.5 4t-1.5 5q-4 13 -9 26q-1 2 -5 11q-6 11 -8 15q-3 6 -7 13q-2 4 -7 11q-6 10 -9 14q-1 1 -2.5 3.5t-2.5 3.5q-20 27 -44 48l-3 3q-8 8 -18 15h-1q-40 31 -87 49q-2 -3 -7 -11.5t-8 -13
t-7.5 -9.5t-8.5 -7q-8 -5 -10 -16t5 -20t22 -7q-10 -10 0 -43q7 -26 21.5 -31t48.5 9q15 6 24.5 2t8.5 -18q-2 -14 -7.5 -26t-10 -20t-4.5 -24.5t9 -40.5q8 -22 34 -49t32 -41q10 -22 62 -46q4 13 7 27q1 2 2 6v4q2 11 3 21q1 4 1 9q2 17 2 31t-2 31v0zM407 417
q1 18 24.5 36.5t49.5 30.5q6 2 17 6.5t16 7t11 6.5t8 8.5t0 11.5q-3 19 -14 28.5t-42 9.5q-15 0 -24 -9t-11 -17t-9 -10t-19 11q-13 13 -13.5 20t5.5 8.5t18 3t17 3.5q9 4 16.5 14.5t5 19.5t-17.5 10t-28 -5t-23 1q-11 4 -21 -4t-18 -16.5t-14 -6.5q-9 3 -27 17.5t-32 29.5
q-59 -50 -90 -120q2 -28 12 -52t19 -33l9 -10q0 -2 2 -5t10.5 -13t20.5 -20t35.5 -24.5t53.5 -28.5l6 2q4 6 -10 20q-11 11 -17.5 19t-12 17.5t-3 17.5t12.5 13q22 12 30.5 9.5t13.5 -23.5q6 -22 20 -11q11 8 13 27v0zM704 297q-10 -5 -10.5 -16.5t8.5 -19.5q5 -4 10 -7
t11 -4.5t11.5 1t7.5 10.5q5 17 -11.5 30t-26.5 6v0zM544 295q-11 9 -22.5 21t-16.5 16t-16.5 7.5t-29.5 3.5q-42 0 -59.5 -16t-8.5 -65q4 -23 12.5 -36t16.5 -16t13 -12.5t4 -27.5q0 -13 -0.5 -20t1.5 -16t2 -12.5t3 -9.5l4 -8l4 -6q3 -4 4 -5q32 -51 41 2q11 61 47 107
q12 16 18 28t3.5 30.5t-20.5 34.5v0zM512 0q159 0 271.5 112.5t112.5 271.5t-112.5 271.5t-271.5 112.5t-271.5 -112.5t-112.5 -271.5t112.5 -271.5t271.5 -112.5zM512 -64q-122 0 -225 60t-163 163t-60 225t60 225t163 163t225 60t225 -60t163 -163t60 -225t-60 -225
t-163 -163t-225 -60z" />
    <glyph glyph-name="uniE665" unicode="&#xe665;" 
d="M992 473q-6 -1 -10 -5q-1 8 -9 6q-4 0 -6 -5q-31 -1 -68 -8q-31 -5 -58 -13l-9 53q-2 10 -12 8l-5 -1q-10 -1 -8 -11l9 -50l-159 -28l65 37l53 60l-79 -16l-64 -37l103 123l39 -33q8 -6 15 2l3 3q6 8 -1 15l-42 34q20 20 41 44q24 29 41 55q4 -1 7 2q5 6 -1 11q5 2 9 6
q5 7 4.5 15.5t-7 13.5t-15 4.5t-13.5 -7.5q-4 -4 -5 -9q-6 5 -11 -1q-3 -3 -1 -8q-23 -21 -47 -49q-20 -25 -36 -48l-41 35q-8 6 -15 -2l-3 -3q-6 -8 1 -15l39 -32l-103 -124l25 70l3 81l-50 -63l-26 -70v161h51q10 0 10 10v5q0 10 -10 10h-54q3 27 3 60q0 37 -4 68q4 2 4 7
q0 7 -8 7q3 5 3 10q0 9 -6 15t-14.5 6t-14 -6t-5.5 -15q0 -5 2 -10q-8 0 -8 -7q0 -5 5 -7q-5 -31 -5 -68q0 -32 4 -60h-54q-10 0 -10 -10v-5q0 -10 10 -10h50v-161l-25 70l-50 63l2 -81l26 -70l-104 124l39 32q8 7 2 15l-4 3q-6 8 -14 2l-41 -35q-16 23 -36 48
q-24 28 -47 49q2 5 -1 8q-5 6 -11 1q-1 5 -5 9q-5 7 -13.5 7.5t-15 -4.5t-7 -13.5t4.5 -15.5q4 -4 9 -6q-6 -5 -1 -11q3 -3 7 -2q17 -26 41 -55q20 -24 41 -44l-42 -34q-7 -7 -1 -15l3 -3q7 -8 15 -2l39 33l103 -123l-65 37l-78 16l53 -60l64 -37l-158 28l9 50q2 10 -8 11
l-5 1q-10 2 -12 -8l-9 -53q-27 8 -59 13q-36 7 -67 8q-2 5 -6 5q-8 2 -9 -6q-4 4 -10 5q-8 1 -15 -4t-8.5 -13t3.5 -15t13 -8q5 -1 11 0q-2 -7 6 -9q4 0 7 3q30 -9 67 -16q31 -5 59 -7l-9 -53q-2 -10 8 -12l5 -1q10 -1 12 9l8 50l159 -28l-74 -13l-70 -38l79 -12l73 13
l-139 -81l-25 44q-5 9 -14 4l-4 -2q-9 -6 -4 -14l27 -47q-26 -11 -53 -27q-33 -19 -57 -38q-4 3 -8 0q-7 -3 -3 -10q-5 0 -10 -3q-7 -4 -9.5 -12t2 -15.5t12.5 -9.5t15 2q5 3 8 7q4 -6 10 -3q4 3 4 7q29 12 61 31q27 16 50 32l27 -46q5 -9 14 -4l4 2q9 6 4 14l-25 44l139 81
l-48 -57l-29 -75l68 42l48 57l-55 -151l-48 17q-10 4 -13 -6l-2 -4q-3 -10 6 -13l51 -19q-12 -25 -23 -55q-13 -35 -20 -65q-4 -1 -6 -5q-2 -7 5 -10q-4 -4 -6 -9q-3 -8 0.5 -15.5t11.5 -10.5t15.5 0.5t10.5 11.5q2 5 1 11q7 -3 10 4q1 5 -2 8q15 28 27 63q11 30 18 57
l51 -19q9 -3 13 7l1 4q4 10 -6 13l-47 18l55 151v-75l25 -76l25 76v75l55 -151l-47 -18q-10 -3 -7 -13l2 -4q4 -10 13 -7l51 19q6 -27 17 -57q13 -35 28 -63q-4 -3 -2 -8q3 -7 10 -4q-1 -5 1 -11q3 -8 10.5 -11.5t15.5 -0.5t11.5 10.5t0.5 15.5q-2 5 -6 9q7 3 5 10
q-2 4 -6 5q-7 30 -20 65q-11 30 -23 55l50 19q10 3 7 13l-2 4q-4 10 -13 6l-48 -17l-55 151l48 -57l68 -42l-29 75l-48 57l139 -81l-25 -44q-5 -8 3 -14l5 -2q9 -5 14 4l27 46q22 -16 50 -32q32 -19 61 -31q0 -4 4 -7q6 -3 10 3q3 -4 8 -7q7 -4 15 -2t12.5 9.5t2 15.5
t-9.5 12q-5 3 -10 3q4 7 -3 10q-4 3 -8 0q-25 19 -57 38q-28 16 -53 27l27 47q5 8 -4 14l-4 2q-9 5 -14 -4l-25 -44l-140 81l74 -13l79 12l-71 38l-73 13l158 28l9 -50q2 -10 12 -9l5 1q10 2 8 12l-9 53q28 2 59 7q37 7 67 16q2 -3 7 -3q8 2 6 9q5 -1 11 -1q8 2 13 9t3.5 15
t-8.5 13t-15 4z" />
    <glyph glyph-name="uniE666" unicode="&#xe666;" 
d="M523 887q-1 9 -11 9t-11 -9q-9 -76 -30.5 -144.5t-47 -118.5t-55 -96t-56.5 -87t-49.5 -82t-35.5 -90t-13 -102q0 -122 88 -208.5t210 -86.5t210 86.5t88 208.5q0 53 -13 102t-35.5 90t-49.5 82t-56.5 87t-55 96t-47 118.5t-30.5 144.5zM574 -59q-13 0 -22 9t-9 22
t9 21.5t22 8.5q31 0 53.5 22.5t22.5 54.5q0 12 9 21t22 9q20 0 28 -18q2 -6 2 -12q0 -57 -40 -97.5t-97 -40.5z" />
    <glyph glyph-name="uniE667" unicode="&#xe667;" horiz-adv-x="1027" 
d="M984 338q21 12 31.5 9.5t10.5 -16.5v-318q0 -37 -8.5 -59t-23.5 -33t-35 -14t-44 -3h-45q-33 0 -81 0.5t-106 0.5h-499q-37 0 -60.5 9.5t-36.5 25t-18.5 35.5t-5.5 42v304q0 20 10.5 26t25.5 -5q4 -3 18.5 -12t33.5 -21t40.5 -25t40 -24.5t31.5 -20t18 -10.5
q13 -9 12 -18.5t-6 -17.5q-4 -8 -12.5 -25.5t-17.5 -36.5t-17.5 -36t-12.5 -24q-5 -8 -3.5 -14t5.5 -9t10.5 -1.5t11.5 8.5q3 3 16 17.5t28 32t29 32.5t18 19q5 5 16 11.5t22 1.5q6 -4 21 -13.5t33 -21t35.5 -23t30.5 -19.5q12 -8 26 -10t26 -1t22.5 4.5t15.5 6.5
q6 3 23.5 13.5t38 23.5t38.5 24t25 15q11 6 19 3.5t18 -10.5q4 -3 16 -18.5t27 -33.5t28 -34t18 -23q6 -7 12.5 -7.5t11 3t6 10.5t-3.5 15q-2 4 -8 20t-13.5 35.5t-16 38t-12.5 26.5q-8 15 -8.5 24.5t10.5 16.5q3 2 25.5 16t50.5 32t54 34t35 22zM545 162q-5 -1 -17.5 5
t-27.5 16q-55 29 -109 61q-47 27 -100.5 58t-100.5 58v184h3v1q0 27 10 50t27.5 40.5t40.5 27.5t50 10h448q27 0 50.5 -10t41 -27.5t27.5 -40.5t10 -50v-1h2v-184q-47 -27 -101 -58t-101 -58q-55 -32 -108 -62q-9 -6 -24 -13t-21 -7zM385 481h321v64h-321v-64zM385 353h321
v64h-321v-64z" />
    <glyph glyph-name="uniE668" unicode="&#xe668;" 
d="M-7 -49zM112 298l-74 -179h95l107 113h180l-77 -381l89 1l217 374l268 2q46 0 65 36q8 16 9 36q-2 19 -10 34q-18 34 -65 34h-268l-217 381l-95 -1l125 -381l-223 -1l-107 111l-96 -1zM1032 -49z" />
    <glyph glyph-name="uniE669" unicode="&#xe669;" 
d="M890 32q-18 25 -41.5 60.5t-44 78.5t-35.5 91t-15 98q0 48 -13.5 87.5t-35.5 70t-52 51.5t-64 31q7 11 11 24.5t4 27.5q0 40 -27.5 68t-68 28t-68.5 -28t-28 -68q0 -28 16 -54q-31 -10 -60.5 -31t-51.5 -50.5t-36 -69t-14 -88.5q0 -52 -14.5 -99t-35 -89t-43 -78.5
t-39.5 -65.5q-11 -17 -4.5 -28.5t20.5 -11.5h721q5 0 11 3.5t10 9.5t4.5 14.5t-6.5 17.5zM536 625q-11 -11 -27 -12h-2q-16 0 -26.5 11.5t-10.5 27.5q0 17 10.5 27.5t27.5 10.5t28 -10.5t11 -27.5q0 -16 -11 -27zM512 -148q38 0 65.5 27.5t27.5 65.5h-186q0 -38 27.5 -65.5
t65.5 -27.5z" />
    <glyph glyph-name="uniE66A" unicode="&#xe66a;" 
d="M752 -55h-173v48q131 24 218 127.5t87 240.5q0 113 -62 206t-163 137q-71 31 -149 31t-149 -31q-101 -44 -163 -137t-62 -206q0 -137 86.5 -240.5t218.5 -127.5v-48h-173q-15 0 -23.5 -9t-10 -15.5t-1.5 -9.5v-69h554v69q0 14 -10.5 24t-24.5 10zM635 676
q-53 -49 -125 -49t-125 49q60 24 124.5 24t125.5 -24zM326 361q0 76 54 130t130 54t130 -54t54 -130t-54 -130t-130 -54t-130 54t-54 130zM607 360.5q0 40.5 -28.5 69t-68.5 28.5q-27 0 -50 -14q7 2 14 2q20 0 34.5 -14.5t14.5 -35t-14.5 -35t-34.5 -14.5t-34.5 14.5
t-14.5 35.5q0 6 2 14q-14 -24 -14 -50q0 -41 28.5 -69.5t68.5 -28.5t68.5 28.5t28.5 69z" />
    <glyph glyph-name="uniE66B" unicode="&#xe66b;" horiz-adv-x="1025" 
d="M725 599q-72 -35 -132.5 -45t-119.5 1t-136 45q-109 0 -198 -150q-79 -132 -101 -299q-20 -158 31 -217q21 -25 53 -25q33 0 62.5 11.5t52 29t45 39t47.5 43.5t53 39.5t67 28.5t85 11q50 0 100 -20.5t89 -49.5t76 -58.5t74.5 -50t70.5 -20.5q74 0 80 119q6 127 -59 295
q-68 175 -158 242q-42 31 -82 31zM339 255q-54 0 -92.5 37.5t-38.5 91t38.5 91t92.5 37.5t92 -37.5t38 -91t-38 -91t-92 -37.5zM666 370q-16 5 -24 19.5t-3 30.5t20 23.5t31 2.5t23.5 -19.5t2.5 -30.5t-19.5 -23.5t-30.5 -2.5zM871 336.5q-5 -15.5 -20 -23t-31 -3
t-23.5 19.5t-2.5 30.5t19.5 23t30.5 3t24 -19.5t3 -30.5zM819 430q-5 -16 -20 -23.5t-31 -2.5t-24 19.5t-3 30t20 23.5t31 3t24 -19.5t3 -30.5zM764 306q-5 -16 -19.5 -23.5t-30.5 -2.5t-24 19.5t-3 30.5t20 23.5t31 2.5t23.5 -19.5t2.5 -30.5zM405 381.5q0 -27.5 -20 -47
t-47.5 -19.5t-47.5 19.5t-20 47t20 47t47.5 19.5t47.5 -19.5t20 -47z" />
    <glyph glyph-name="uniE66C" unicode="&#xe66c;" 
d="M846 434q-37 64 -94.5 119t-112.5 88.5t-106 57t-81 33.5t-31 10q1 -5 4 -13t7.5 -34t4.5 -52t-7 -62.5t-23 -70t-48.5 -70.5t-78.5 -68q-110 -72 -147 -160.5t7 -190.5q65 -141 280 -164l-3 1q-29 16 -54 43.5t-39.5 68.5t-13 85.5t31.5 97.5t89 101q-6 -21 -9.5 -50.5
t-0.5 -49.5q8 -55 36.5 -73.5t60 -4t54.5 50.5q34 53 27 182q-1 19 -6.5 58t-7.5 41q6 -4 15 -10.5t31.5 -27.5t40 -44t33.5 -58.5t20 -72.5q5 -49 -2.5 -96.5t-28 -93t-59.5 -84.5t-94 -64q69 6 131 32.5t105.5 64.5t73 82t41.5 88q20 78 7 159.5t-53 150.5z" />
    <glyph glyph-name="uniE66D" unicode="&#xe66d;" 
d="M556 91l-147 30q4 26 5 48l100 69q24 -68 42 -147zM435 404l-49 -34q7 -19 12 -37l85 -17q-21 47 -46 84q0 1 -2 4zM510 251q-9 25 -20 49l-88 18q15 -61 13 -132zM256 484q-2 -7 -2 -14q0 -26 22 -38q-2 -8 -2 -15q0 -23 15.5 -39t37.5 -16q34 0 49 32q3 -8 5 -11l49 34
q-2 4 -2 5q-5 9 -8 20q9 -6 20 -6q18 0 30 12.5t12 30t-12 30t-29.5 12.5t-30.5 -12q4 47 32.5 86.5t76.5 63.5q45 21 91 18.5t85 -26.5q-39 55 -104 72.5t-127 -13.5q-72 -36 -96 -115q0 58 37 98q7 7 14 13q36 32 83 42t90 -4q-51 44 -119 43.5t-120 -45.5
q-60 -53 -64 -133q-25 38 -67 55t-87 6q-52 -12 -83.5 -56t-27.5 -97q12 35 39 60.5t64 33.5q45 11 86.5 -6t66.5 -54q-76 30 -149 -6q-61 -31 -87.5 -94.5t-7.5 -128.5q5 46 32 85.5t70 61.5q56 28 118 15zM626 -30l68 13q-2 12 -3 23l-46 32q-11 -32 -19 -68zM704 99
l-23 16v-2q-12 -18 -22 -39l40 8q2 9 5 17zM656 67q-4 -11 -9 -23l44 -30q-1 33 6 61zM609 272q45 14 80 -17q4 -3 6 -6q18 -19 18 -45q-11 36 -45 53q-29 14 -59 6t-48 -34q40 25 82 4q47 -23 50 -70q-6 6 -14 6t-13.5 -5.5t-5.5 -14t5.5 -14t13.5 -5.5q5 0 10 2
q-2 -5 -4 -9q0 -1 -1 -2l23 -16q0 1 1 3l1 2q7 -15 23 -15q10 0 17 7.5t7 18.5q0 3 -1 7q11 5 11 17q0 4 -2 7q29 6 56 -7q41 -21 47 -69q9 31 -3.5 60.5t-40.5 43.5q-34 17 -70 3q12 17 31.5 25t39.5 3q36 -9 48 -44q2 25 -12.5 45t-38.5 26q-21 5 -40.5 -3t-31.5 -25
q-2 37 -30 61q-23 21 -55 21.5t-55 -20.5zM715 -105q-15 44 -21 82l-70 -14q-2 -11 -4 -21l67 -46h-5h-7l-57 39q-3 -20 -5 -38h-25q-6 60 -17 119l-178 -122q-3 0 -26 -1l201 138q-4 24 -9 46l-152 30q-14 -100 -59 -215q-100 -6 -159.5 -16.5t-59.5 -22.5q0 -18 128 -31
t308.5 -13t308.5 13t128 31q0 14 -79.5 25.5t-207.5 16.5z" />
    <glyph glyph-name="uniE66E" unicode="&#xe66e;" 
d="M583 500h378v-142h-378v142zM299 730q-35 16 -76 1t-58 -51q-18 -34 -2.5 -77.5t55.5 -62.5q27 -13 81.5 -25.5t108.5 -12.5t64.5 21.5t-24 68t-79 86t-70.5 52.5zM238 593q-17 8 -23.5 25.5t1.5 35.5q8 17 27 20t36 -6q26 -12 70.5 -50t37.5 -54q-7 -15 -62.5 -0.5
t-86.5 29.5zM583 311h331v-473h-331v473zM63 500h378v-142h-378v142zM110 311h331v-473h-331v473zM859 680q-17 36 -58 51t-76 -1q-26 -13 -70.5 -52.5t-79 -86t-24 -68t64.5 -21.5t108.5 12.5t81.5 25.5q40 19 55.5 62.5t-2.5 77.5zM786 593q-31 -15 -86.5 -29.5t-62.5 0.5
q-7 16 37.5 54t70.5 50q17 9 36 6t27 -20q8 -18 1.5 -35.5t-23.5 -25.5z" />
    <glyph glyph-name="uniE66F" unicode="&#xe66f;" 
d="M723 572h-191v-167h216q-2 89 -25 167zM532 -35q57 8 104.5 61t77.5 138h-182v-199zM532 803v-189h178q-30 80 -76.5 130.5t-101.5 58.5zM494 363h-216q2 -91 25 -171h191v171zM748 363h-216v-171h190q24 80 26 171zM762 192h168q37 81 41 171h-185q-2 -90 -24 -171z
M276 614q36 105 99 167t137.5 62t137.5 -62t100 -167h160q-61 105 -166.5 167t-230.5 62t-230.5 -62t-166.5 -167h160zM762 572q22 -79 24 -167h185q-4 88 -40 167h-169zM272 164h-162q59 -109 167 -174t236 -65q-77 0 -141 65t-100 174zM754 164q-36 -109 -100.5 -174
t-140.5 -65q128 0 235.5 65t167.5 174h-162zM94 572q-36 -79 -40 -167h185q3 88 24 167h-169zM494 803q-55 -8 -102 -58.5t-76 -130.5h178v189zM494 572h-192q-22 -78 -24 -167h216v167zM494 -35v199h-182q29 -85 77 -138t105 -61zM239 363h-185q5 -90 42 -171h168
q-22 81 -25 171z" />
    <glyph glyph-name="uniE670" unicode="&#xe670;" 
d="M899 437q-32 0 -55 -22.5t-23 -55.5q0 -23 13 -43l-190 -107l-103 291q23 8 37 28t14 45q0 32 -22.5 55t-54.5 23t-55 -23t-23 -55q0 -24 14 -44t36 -28l-103 -292l-192 108q11 18 11 39q0 32 -23 55t-55 23t-54.5 -23t-22.5 -55t22.5 -54.5t54.5 -22.5q7 0 14 1l60 -374
h630l61 376h9q32 0 54.5 22.5t22.5 55t-22.5 55t-54.5 22.5z" />
    <glyph glyph-name="uniE671" unicode="&#xe671;" horiz-adv-x="1076" 
d="M943 272v136q0 110 -54 203t-147 147t-203 54t-203 -54t-147 -147t-54 -203v-136q-56 -5 -95.5 -47t-39.5 -99v-189q0 -61 43.5 -104.5t104.5 -43.5t104 43.5t43 104.5v189q0 41 -22 75.5t-57 53.5v153q0 88 43 162t117 117t162 43q87 0 161.5 -43.5t117 -117.5
t42.5 -161v-152q-36 -20 -58.5 -54.5t-22.5 -77.5v-188q0 -61 43.5 -104.5t104.5 -43.5t104 43.5t43 104.5v188q4 58 -34.5 100.5t-95.5 47.5z" />
    <glyph glyph-name="uniE672" unicode="&#xe672;" 
d="M814 368h-202l68 439l-470 -575h234l-66 -439z" />
    <glyph glyph-name="uniE673" unicode="&#xe673;" 
d="M512 300zM435 300q0 32 22.5 54.5t54.5 22.5t54.5 -22.5t22.5 -54.5t-22.5 -54.5t-54.5 -22.5t-54.5 22.5t-22.5 54.5z" />
    <glyph glyph-name="uniE674" unicode="&#xe674;" 
d="M389 288q0 -51 36 -87t87 -36t87 36t36 87t-36 87t-87 36t-87 -36t-36 -87z" />
    <glyph glyph-name="uniE675" unicode="&#xe675;" 
d="M272 288q0 -99 70 -169.5t170 -70.5t170 70.5t70 169.5q0 100 -70 170t-170 70t-170 -70t-70 -170z" />
    <glyph glyph-name="uniE676" unicode="&#xe676;" 
d="M512 853q95 0 182 -37t150 -100t100 -150t37 -182t-37 -182t-100 -150t-150 -100t-182 -37t-182 37t-150 100t-100 150t-37 182t37 182t100 150t150 100t182 37zM512 896q-139 0 -257 -68.5t-186.5 -186.5t-68.5 -257t68.5 -257t186.5 -186.5t257 -68.5t257 68.5
t186.5 186.5t68.5 257t-68.5 257t-186.5 186.5t-257 68.5v0z" />
    <glyph glyph-name="uniE677" unicode="&#xe677;" 
d="M512 896q-104 0 -199 -40.5t-163.5 -109t-109 -163.5t-40.5 -199t40.5 -199t109 -163.5t163.5 -109t199 -40.5t199 40.5t163.5 109t109 163.5t40.5 199t-40.5 199t-109 163.5t-163.5 109t-199 40.5zM512 -87q-96 0 -183 37.5t-150 100.5t-100.5 150t-37.5 183t37.5 183
t100.5 150t150 100.5t183 37.5t183 -37.5t150 -100.5t100.5 -150t37.5 -183t-37.5 -183t-100.5 -150t-150 -100.5t-183 -37.5zM512 578q-80 0 -137 -57t-57 -137t57 -137t137 -57t137 57t57 137t-57 137t-137 57z" />
    <glyph glyph-name="uniE678" unicode="&#xe678;" horiz-adv-x="1025" 
d="M512 -128q-104 0 -199 40.5t-163.5 109t-109 163.5t-40.5 199t40.5 199t109 163.5t163.5 109t199 40.5t199 -40.5t163.5 -109t109 -163.5t40.5 -199t-40.5 -199t-109 -163.5t-163.5 -109t-199 -40.5zM763 640l-359 -364l-143 145l-52 -52l193 -194l2 1l1 -1l410 413z" />
    <glyph glyph-name="uniE679" unicode="&#xe679;" horiz-adv-x="1366" 
d="M685.5 874q-100.5 0 -191.5 -39t-156.5 -105t-104.5 -157t-39 -191t39 -191t104.5 -157t156.5 -105t191.5 -39t191.5 39t157 105t105 157t39 191t-39 191t-105 157t-157 105t-191.5 39zM927 97q-14 -13 -40 -15.5t-62.5 7t-78.5 29.5t-91 55.5t-95.5 82t-82.5 95.5
t-56 91t-29.5 79t-6.5 63t16 39q3 3 14 15t16 16.5t16.5 13.5t18.5 11t19 4t21.5 -2.5t22 -14t25.5 -25.5q19 -24 28.5 -43t11.5 -31.5t-4.5 -26t-12.5 -21t-20 -21.5q-5 -4 -7 -6q-33 -34 89.5 -156.5t155.5 -88.5q2 2 7 6q14 14 21 20.5t20.5 13t26 4t32 -12t42.5 -28.5
q16 -12 25.5 -24.5t14 -22.5t2.5 -21.5t-4 -19t-11 -18.5t-13.5 -16t-15.5 -16z" />
    <glyph glyph-name="uniE67A" unicode="&#xe67a;" 
d="M712 547l124 200l124 -200h-248zM549 758h248l-124 -207zM387 547l124 200l124 -200h-248zM227 758h247l-124 -207zM64 547l124 200l124 -200h-248zM496 11l-430 503h257zM653 514l-131 -504l-152 504h283zM959 514l-414 -503l159 503h255z" />
    <glyph glyph-name="uniE67B" unicode="&#xe67b;" 
d="M516 384v409l-332 -145v-264h332v-414q67 18 122.5 58.5t98.5 96.5q44 54 72.5 120t38.5 139h-332zM516 894l426 -185v-281q0 -96 -32.5 -187t-88.5 -164q-58 -76 -135.5 -129.5t-169.5 -75.5q-92 22 -170 75.5t-136 129.5q-56 73 -88 164t-32 187v281z" />
    <glyph glyph-name="uniE67C" unicode="&#xe67c;" 
d="M919 280q8 0 10 -8l-12 -186q-2 -9 -5 -8.5t-6 4.5l-3 4l-24 41q-62 -89 -158 -140.5t-208 -51.5q-128 0 -234.5 67t-162.5 178q-2 4 -6 11t-6 11t-4.5 10.5t-3.5 12.5q-4 25 11 39t35.5 13t31.5 -14q12 -14 28 -43q45 -86 128.5 -137.5t182.5 -51.5q88 0 163.5 40.5
t123.5 109.5l-44 9l-12 4q-5 4 4 10l169 76h2zM474 683h80v-66q49 -3 91 -25l9 -4l-26 -87l-12 6q-47 24 -91 24q-26 0 -41 -10.5t-15 -28.5q0 -16 17.5 -29t61.5 -31q64 -24 92.5 -57.5t28.5 -84.5t-32 -87.5t-87 -48.5v-75h-80v70q-68 4 -110 32l-7 4l25 89l13 -7
q49 -30 104 -30q30 0 47.5 12t17.5 33q0 18 -14.5 32t-55.5 29q-28 10 -48.5 21t-40.5 27t-30.5 39t-10.5 51q0 49 30.5 84t83.5 47v71zM511 833q128 0 234.5 -67t162.5 -178q2 -4 6 -11t6 -11t4.5 -10.5t3.5 -12.5q4 -25 -11 -39t-35.5 -13t-31.5 14q-12 13 -28 43
q-45 86 -128.5 137.5t-182.5 51.5q-88 0 -163.5 -40.5t-123.5 -109.5l44 -9l12 -4q5 -4 -4 -10l-169 -76q-10 -2 -12 8l12 186q2 9 5 8.5t6 -4.5l3 -4l24 -41q62 89 158 140.5t208 51.5z" />
    <glyph glyph-name="uniE67D" unicode="&#xe67d;" 
d="M910 896h-796q-47 0 -80.5 -33.5t-33.5 -80.5v-796q0 -47 33.5 -80.5t80.5 -33.5h796q47 0 80.5 33.5t33.5 80.5v796q0 47 -33.5 80.5t-80.5 33.5zM535 -43l-51 370l-399 80l797 347z" />
    <glyph glyph-name="uniE67E" unicode="&#xe67e;" 
d="M673 649l157 53l-53 -157zM513 832l74 -148h-148zM196 702l158 -53l-105 -104zM212 311l-148 74l148 74v-148zM354 119l-158 -53l53 158zM513 -64l-74 148h148zM250 384q0 109 77 186.5t186 77.5t186.5 -77.5t77.5 -186.5t-77.5 -186t-186.5 -77t-186 77t-77 186z
M812 457l148 -74l-148 -74v148zM830 66l-157 53l104 105z" />
    <glyph glyph-name="uniE67F" unicode="&#xe67f;" horiz-adv-x="1025" 
d="M987 646q37 37 37 90t-37.5 90.5t-90.5 37.5t-90 -37l-23 -23l181 -181zM958 720l-78 78q35 10 62 -16q18 -19 18 -46q0 -8 -2 -16zM536 375l30 -60l306 307l-91 90l-306 -306zM548 207l-60 121l-121 60l369 369l-10 10h-22v1h-704v-864h1024v568l-106 105zM231 70
l88 265l60 -20l-47 -143l143 47l20 -61z" />
    <glyph glyph-name="uniE680" unicode="&#xe680;" horiz-adv-x="1238" 
d="M921 532q-4 26 -11 52t-24.5 60t-41.5 60.5t-64.5 48.5t-90.5 29q-45 7 -83 0.5t-69.5 -22t-57 -38t-45.5 -48.5t-34.5 -52.5t-25 -51t-16.5 -44t-9 -30.5l-3 -12q-1 11 -1 20q0 106 52.5 195.5t143.5 141.5t198 52q148 0 259 -96t131 -239zM814 518l260 -227l153 278z
M311 356q4 -27 11.5 -52.5t25 -60t41.5 -61t64.5 -48.5t90.5 -29q55 -8 104 4.5t82.5 38t61.5 59t45 67t29 64t16.5 47.5t4.5 18q1 -11 1 -20q0 -105 -53 -194.5t-143.5 -141.5t-197.5 -52q-149 0 -259.5 96t-130.5 239zM419 369l-260 228l-153 -279zM51 -64h1172v-64h-1172
v64zM438 457h164v-30h-164v30zM505 525h32v-163h-32v163zM652 454h165v-30h-165v30z" />
    <glyph glyph-name="uniE681" unicode="&#xe681;" 
d="M0 598l46 -64q2 1 4 3.5t9 10t13.5 13t16.5 13.5t18 11t17.5 6t15.5 -2q24 -12 43.5 -66t49.5 -185q6 -29 13 -56t17.5 -62.5t21.5 -66t25 -64t30 -59.5t34.5 -49.5t39.5 -37t43.5 -19.5t48.5 1.5t53 27.5q60 44 126.5 107.5t134.5 147.5t118.5 169.5t73.5 177t3 166.5
q-17 62 -53.5 92.5t-80.5 29.5t-91.5 -18.5t-88 -47t-68.5 -61t-34 -54.5q-4 -30 -0.5 -36.5t18.5 -7t31 3t35.5 -6t32.5 -34.5q17 -34 5.5 -81.5t-39 -94.5t-61 -85.5t-59.5 -55.5q-14 -9 -27 5t-23 45t-18.5 69t-15 83.5t-11 81t-8.5 69t-5 41.5q-2 15 -7 34t-15 46
t-23 49t-34 38.5t-45.5 20t-59 -11t-72.5 -50.5q-165 -151 -198 -186z" />
    <glyph glyph-name="uniE682" unicode="&#xe682;" 
d="M512 384zM0 384q0 139 68.5 257t186.5 186.5t257 68.5t257 -68.5t186.5 -186.5t68.5 -257t-68.5 -257t-186.5 -186.5t-257 -68.5t-257 68.5t-186.5 186.5t-68.5 257zM512 483zM313 483.5q0 82.5 58.5 140.5t140.5 58t140.5 -58t58.5 -140.5t-58.5 -141t-140.5 -58.5
t-140.5 58.5t-58.5 141zM592 185h-172q-95 0 -164 -47t-91 -130q66 -63 156.5 -99.5t188.5 -36.5q193 0 339 127q-20 86 -90.5 136t-166.5 50z" />
    <glyph glyph-name="uniE683" unicode="&#xe683;" 
d="M129 264q66 14 131.5 -3.5t116.5 -66.5q25 -25 42.5 -56t26.5 -64q9 -34 9.5 -68t-6.5 -65q-65 -15 -130.5 7t-116.5 73q-52 49 -69.5 114t-3.5 129zM892 264q14 -64 -3.5 -129t-68.5 -114q-25 -25 -58 -42q-34 -17 -71 -27t-76.5 -13t-77.5 -1h-56v358q-55 5 -103 30
q-37 19 -68 47.5t-53 63.5t-34 77q-13 41 -13 85q0 60 24 116q46 -11 84.5 -34.5t69.5 -56.5q8 65 42 118.5t86 90.5q53 -37 87 -92t41 -121q31 33 70 57.5t85 35.5q22 -54 22 -114q0 -43 -12 -84t-34.5 -76.5t-53 -64t-67.5 -47.5v-1q-27 -13 -55 -21t-59 -10v-256
q12 38 36 74t55 67q25 24 57 43t66 31q35 11 70 14t68 -4zM892 264z" />
    <glyph glyph-name="uniE684" unicode="&#xe684;" horiz-adv-x="1039" 
d="M1039 384l-158 349v34h-290q0 37 -21.5 61.5t-53.5 24.5t-54 -24t-22 -62h-282h-3v-39l-155 -344v0v0q0 -80 52 -137.5t135 -57.5q84 0 135.5 57.5t51.5 137.5v0v0l-142 314h226v-663h-221q-63 0 -91.5 -30t-28.5 -90h805q0 54 -29.5 87t-90.5 33h-118h-116v663h239
l-142 -314q0 -79 52 -137t135 -58q84 0 135.5 57.5t51.5 137.5v0zM293 384h-212l106 270zM746 384l106 270l106 -270h-212z" />
  </font>
</defs>
</svg>
